<svg width="1280" height="276" viewBox="0 0 1280 276" fill="none" xmlns="http://www.w3.org/2000/svg">
<path d="M1 1.74365C1 1.74365 6.95669 132.091 7.67146 151.744C8.38623 171.396 184.907 43.4787 724.557 212.636C1264.21 381.793 1278.69 151.802 1278.69 151.802V1.74365H1Z" fill="#D9D9D9" stroke="#D9D9D9"/>
<g clip-path="url(#clip0_359_6003)">
<path fill-rule="evenodd" clip-rule="evenodd" d="M675.028 18.7399C674.559 19.2875 673.581 20.8246 672.855 22.1556L671.535 24.575H667.24H662.945L661.895 22.6127C660.765 20.5035 658.338 17.944 657.893 18.3926C656.583 19.7094 655.75 54.747 657.028 54.747C657.385 54.747 657.619 50.4807 657.659 43.2191C657.696 36.8783 657.784 31.4349 657.856 31.1218C657.929 30.8087 658.027 28.3112 658.074 25.5713C658.121 22.8319 658.352 20.5946 658.585 20.6003C658.818 20.6066 659.773 21.8231 660.707 23.3044C661.938 25.2576 662.755 25.9868 663.679 25.9578C664.379 25.935 666.581 25.8713 668.572 25.8155L672.192 25.7136L674.09 22.73L675.988 19.7458L676.125 22.8723C676.814 38.5959 678.209 53.5082 679.071 54.3752C679.876 55.1848 679.842 53.5167 678.833 42.7922C678.377 37.9389 677.893 31.0222 677.757 27.4214C677.507 20.7722 677.05 17.7437 676.298 17.7437C676.068 17.7437 675.497 18.1922 675.028 18.7399ZM688.534 27.2319C688.326 27.4402 688.156 28.5583 688.156 29.7162C688.156 31.2379 687.69 32.3554 686.476 33.7484C684.433 36.0916 683.833 39.3553 684.865 42.5074C685.466 44.3463 686.084 45.0037 688.076 45.923L690.542 47.0617L690.274 50.9043C690.126 53.0175 690.206 54.747 690.451 54.747C690.993 54.747 691.445 52.5518 691.668 48.8349C691.846 45.8719 691.767 45.7683 688.352 44.5005C686.432 43.787 685.912 42.6645 685.9 39.1965C685.891 36.7571 686.699 34.8984 688.246 33.7934C688.957 33.2862 689.288 32.3366 689.288 30.8047C689.288 27.952 690.03 27.9617 691.835 30.8371L693.264 33.1143H697.114C700.957 33.1143 700.966 33.1103 701.909 31.1218C703.075 28.6625 704.003 28.5543 704.003 30.8781C704.003 31.8396 704.682 33.7928 705.513 35.2172C707.148 38.0249 707.551 42.0901 706.338 43.5595C705.963 44.0155 704.519 44.7253 703.131 45.1375C701.743 45.5495 700.608 46.1143 700.608 46.3922C700.608 47.4794 702.419 53.9197 702.852 54.3695C703.84 55.3976 704.007 53.4866 703.2 50.3771C702.733 48.5806 702.405 47.0855 702.47 47.0555C702.535 47.0252 703.642 46.5407 704.929 45.9777C708.801 44.286 709.594 40.4523 707.156 35.2138C706.4 33.5896 705.603 31.2356 705.384 29.9832C705.165 28.7308 704.877 27.5131 704.743 27.2774C704.296 26.489 702.228 28.0579 701.035 30.0908C699.896 32.0338 699.761 32.0935 697.101 31.8362C694.721 31.6062 694.074 31.2499 692.339 29.2113C690.421 26.9563 689.357 26.4036 688.534 27.2319ZM662.971 33.1143C662.745 33.482 662.815 34.0388 663.126 34.3519C663.503 34.7316 663.829 34.6986 664.103 34.2528C664.329 33.8851 664.259 33.3283 663.948 33.0152C663.57 32.6355 663.245 32.6685 662.971 33.1143ZM670.612 33.9209C670.612 34.4168 671.014 34.8221 671.507 34.8221C672.507 34.8221 672.333 33.5964 671.284 33.2446C670.914 33.1205 670.612 33.4251 670.612 33.9209ZM665.72 36.822C665.539 37.2956 665.686 38.0414 666.048 38.4792C666.931 39.5494 666.001 40.0732 663.987 39.6394C662.545 39.3291 662.493 39.3712 663.401 40.1159C664.7 41.1827 670.508 41.0347 671.195 39.9172C671.869 38.8202 671.381 38.4974 670.35 39.3587C669.879 39.7515 669.098 39.92 668.614 39.7333C667.899 39.4578 667.856 39.1623 668.382 38.174C668.889 37.2193 668.864 36.8482 668.264 36.4662C667.099 35.7238 666.084 35.8656 665.72 36.822ZM691.552 38.5224C691.552 39.0445 691.826 39.3792 692.161 39.2671C692.495 39.1549 692.769 38.8202 692.769 38.5224C692.769 38.2247 692.495 37.89 692.161 37.7778C691.826 37.6657 691.552 38.0004 691.552 38.5224ZM699.476 38.8071C699.476 39.1202 699.858 39.3764 700.324 39.3764C700.792 39.3764 701.174 39.1202 701.174 38.8071C701.174 38.494 700.792 38.2378 700.324 38.2378C699.858 38.2378 699.476 38.494 699.476 38.8071ZM695.387 41.432C695.643 42.7795 695.544 42.8786 694.323 42.4886C693.168 42.1203 693.077 42.1806 693.681 42.9129C694.562 43.9807 698.432 43.9522 698.788 42.8746C698.976 42.3059 698.708 42.2102 697.767 42.5108C696.626 42.8751 696.52 42.7601 696.773 41.432C696.988 40.2952 696.826 39.9456 696.08 39.9456C695.334 39.9456 695.172 40.2952 695.387 41.432Z" fill="#7A7A7A"/>
<path d="M570.386 67.8199C569.353 67.8199 568.353 67.661 567.386 67.3431C566.432 67.0252 565.697 66.6211 565.18 66.1311L566.055 64.5417C566.584 65.0317 567.253 65.4226 568.061 65.7139C568.869 65.9921 569.704 66.1311 570.565 66.1311C571.704 66.1311 572.611 65.9258 573.286 65.5153C573.975 65.0913 574.319 64.5087 574.319 63.7669C574.319 63.3696 574.187 63.0385 573.922 62.7735C573.657 62.5086 573.333 62.2967 572.949 62.1378C572.565 61.9788 572.021 61.7933 571.319 61.5815C570.432 61.3165 569.717 61.0649 569.174 60.8265C568.631 60.5881 568.161 60.2372 567.763 59.7735C567.379 59.2967 567.187 58.6741 567.187 57.906C567.187 57.0318 567.432 56.2701 567.922 55.6212C568.412 54.9723 569.094 54.4756 569.968 54.1312C570.843 53.7735 571.843 53.5947 572.968 53.5947C573.829 53.5947 574.644 53.7008 575.412 53.9126C576.194 54.1113 576.869 54.3961 577.439 54.7669L576.644 56.3961C576.127 56.0253 575.545 55.7471 574.896 55.5616C574.26 55.3761 573.584 55.2835 572.869 55.2835C571.73 55.2835 570.823 55.5087 570.147 55.959C569.472 56.3961 569.134 56.9854 569.134 57.7272C569.134 58.1377 569.267 58.4821 569.531 58.7603C569.81 59.0384 570.147 59.257 570.545 59.4159C570.955 59.5749 571.512 59.7604 572.214 59.9722C573.088 60.2372 573.79 60.4888 574.319 60.7272C574.863 60.9524 575.319 61.2902 575.69 61.7404C576.074 62.1907 576.267 62.7735 576.267 63.4888C576.267 64.3761 576.015 65.1445 575.512 65.7934C575.021 66.4423 574.333 66.9457 573.445 67.3033C572.558 67.6478 571.538 67.8199 570.386 67.8199Z" fill="#7A7A7A"/>
<path d="M599.196 57.1311L598.123 63.0119C597.818 64.5747 597.209 65.7603 596.295 66.5682C595.394 67.3761 594.282 67.7801 592.957 67.7801C592.083 67.7801 591.348 67.6212 590.752 67.3033C590.169 66.9722 589.739 66.5285 589.46 65.9722C588.984 66.5813 588.407 67.0383 587.732 67.343C587.056 67.6343 586.341 67.7801 585.586 67.7801C584.315 67.7801 583.335 67.4555 582.646 66.8066C581.97 66.1443 581.633 65.2569 581.633 64.1443C581.633 63.7867 581.672 63.4092 581.752 63.0119L582.884 57.1311H584.672L583.58 62.9722C583.513 63.2635 583.48 63.5881 583.48 63.9457C583.48 65.363 584.262 66.0715 585.825 66.0715C586.659 66.0715 587.348 65.8199 587.891 65.3165C588.434 64.8131 588.811 64.0582 589.023 63.0516L590.136 57.1311H591.924L590.831 62.9722C590.765 63.3695 590.732 63.6941 590.732 63.9457C590.732 65.363 591.513 66.0715 593.076 66.0715C594.838 66.0715 595.924 64.9919 596.335 62.8331L597.407 57.1311H599.196Z" fill="#7A7A7A"/>
<path d="M609.4 57.0317C610.843 57.0317 611.989 57.4358 612.837 58.2437C613.698 59.0515 614.128 60.2038 614.128 61.7006C614.128 61.9125 614.122 62.0781 614.108 62.1973L605.406 63.8066C605.658 65.3431 606.751 66.1112 608.685 66.1112C609.347 66.1112 609.963 66.0052 610.532 65.7933C611.102 65.5815 611.572 65.2835 611.943 64.8993L612.757 66.2701C612.241 66.7601 611.612 67.1376 610.87 67.4026C610.141 67.6542 609.36 67.7801 608.526 67.7801C607.492 67.7801 606.598 67.5946 605.843 67.2238C605.089 66.853 604.506 66.323 604.095 65.6344C603.684 64.9457 603.479 64.1376 603.479 63.2105C603.479 62.0451 603.731 60.9921 604.234 60.0516C604.751 59.1111 605.453 58.376 606.34 57.8463C607.241 57.3032 608.261 57.0317 609.4 57.0317ZM609.34 58.6211C608.267 58.6211 607.373 58.9656 606.658 59.6543C605.943 60.3429 605.519 61.2635 605.387 62.4158L612.36 61.1245C612.294 60.3298 611.989 59.7139 611.446 59.2768C610.903 58.8397 610.201 58.6211 609.34 58.6211Z" fill="#7A7A7A"/>
<path d="M624.428 57.0317C625.872 57.0317 627.018 57.4358 627.865 58.2437C628.726 59.0515 629.157 60.2038 629.157 61.7006C629.157 61.9125 629.15 62.0781 629.137 62.1973L620.435 63.8066C620.687 65.3431 621.78 66.1112 623.713 66.1112C624.375 66.1112 624.991 66.0052 625.561 65.7933C626.13 65.5815 626.601 65.2835 626.971 64.8993L627.786 66.2701C627.269 66.7601 626.64 67.1376 625.899 67.4026C625.17 67.6542 624.389 67.7801 623.554 67.7801C622.521 67.7801 621.627 67.5946 620.872 67.2238C620.117 66.853 619.534 66.323 619.124 65.6344C618.713 64.9457 618.508 64.1376 618.508 63.2105C618.508 62.0451 618.76 60.9921 619.263 60.0516C619.779 59.1111 620.481 58.376 621.369 57.8463C622.269 57.3032 623.289 57.0317 624.428 57.0317ZM624.369 58.6211C623.296 58.6211 622.402 58.9656 621.687 59.6543C620.971 60.3429 620.548 61.2635 620.415 62.4158L627.389 61.1245C627.323 60.3298 627.018 59.7139 626.475 59.2768C625.932 58.8397 625.23 58.6211 624.369 58.6211Z" fill="#7A7A7A"/>
<path d="M636.02 64.3032C635.98 64.5019 635.96 64.6874 635.96 64.8595C635.96 65.27 636.073 65.5946 636.298 65.833C636.537 66.0583 636.881 66.1708 637.331 66.1708C637.888 66.1708 638.391 66.0051 638.841 65.6741L639.239 67.1244C638.603 67.5615 637.788 67.7801 636.795 67.7801C635.96 67.7801 635.292 67.5483 634.788 67.0847C634.285 66.621 634.033 65.9788 634.033 65.1575C634.033 64.8662 634.06 64.5945 634.113 64.343L636.02 54.8264H637.927L637.47 57.1311H640.47L640.152 58.7006H637.152L636.02 64.3032Z" fill="#7A7A7A"/>
<path d="M612.386 78.0913H617.83C619.221 78.0913 620.413 78.3297 621.406 78.8065C622.413 79.2702 623.175 79.9323 623.691 80.7933C624.221 81.6409 624.486 82.641 624.486 83.7933C624.486 85.4093 624.122 86.8397 623.393 88.0847C622.678 89.3296 621.665 90.2967 620.353 90.9854C619.055 91.6608 617.546 91.9986 615.824 91.9986H609.605L612.386 78.0913ZM615.883 90.2701C617.221 90.2701 618.386 89.9987 619.38 89.4556C620.373 88.9124 621.135 88.1642 621.665 87.2105C622.208 86.2437 622.479 85.1443 622.479 83.9125C622.479 82.6278 622.069 81.6277 621.247 80.9125C620.426 80.1841 619.221 79.8198 617.631 79.8198H614.016L611.929 90.2701H615.883Z" fill="#7A7A7A"/>
<path d="M632.357 83.0383C632.82 82.4554 633.39 82.0317 634.065 81.7667C634.741 81.5017 635.562 81.3694 636.529 81.3694L636.171 83.2171C636.052 83.2039 635.887 83.1972 635.674 83.1972C633.489 83.1972 632.165 84.3761 631.701 86.7336L630.648 91.9985H628.741L630.827 81.4687H632.655L632.357 83.0383Z" fill="#7A7A7A"/>
<path d="M645.537 81.3694C646.981 81.3694 648.127 81.7734 648.975 82.5813C649.836 83.3892 650.266 84.5415 650.266 86.0383C650.266 86.2501 650.259 86.4157 650.246 86.5349L641.544 88.1442C641.796 89.6807 642.889 90.4489 644.822 90.4489C645.485 90.4489 646.1 90.3428 646.67 90.131C647.24 89.9191 647.71 89.6211 648.081 89.2369L648.895 90.6078C648.379 91.0978 647.749 91.4753 647.008 91.7402C646.279 91.9918 645.498 92.1177 644.663 92.1177C643.63 92.1177 642.736 91.9322 641.981 91.5614C641.226 91.1907 640.644 90.6607 640.233 89.972C639.822 89.2834 639.617 88.4753 639.617 87.5482C639.617 86.3827 639.869 85.3297 640.372 84.3892C640.888 83.4488 641.591 82.7137 642.478 82.184C643.379 81.6408 644.399 81.3694 645.537 81.3694ZM645.478 82.9588C644.405 82.9588 643.511 83.3032 642.796 83.9919C642.081 84.6806 641.657 85.6012 641.524 86.7535L648.498 85.4621C648.432 84.6674 648.127 84.0515 647.584 83.6144C647.041 83.1773 646.339 82.9588 645.478 82.9588Z" fill="#7A7A7A"/>
<path d="M666.467 90.5085C666.825 90.5085 667.149 90.4489 667.44 90.3296L667.242 91.8793C666.844 92.0383 666.374 92.1177 665.831 92.1177C665.156 92.1177 664.599 91.9655 664.162 91.6608C663.725 91.3429 663.454 90.9125 663.348 90.3694C662.858 90.9388 662.268 91.3759 661.58 91.6806C660.904 91.9719 660.142 92.1177 659.295 92.1177C658.394 92.1177 657.593 91.9389 656.891 91.5813C656.189 91.2105 655.639 90.6806 655.242 89.9919C654.844 89.3032 654.646 88.4951 654.646 87.5681C654.646 86.376 654.904 85.3099 655.421 84.3694C655.937 83.4289 656.646 82.6938 657.546 82.1641C658.46 81.6344 659.48 81.3694 660.606 81.3694C661.507 81.3694 662.275 81.5283 662.911 81.8462C663.56 82.1641 664.056 82.6342 664.401 83.2568L664.758 81.4687H666.666L665.215 88.78C665.176 88.9787 665.156 89.1508 665.156 89.2965C665.156 89.6939 665.268 89.9986 665.493 90.2104C665.719 90.4091 666.043 90.5085 666.467 90.5085ZM659.712 90.4489C660.494 90.4489 661.195 90.2633 661.818 89.8926C662.454 89.5084 662.944 88.9787 663.288 88.3032C663.646 87.6277 663.825 86.8595 663.825 85.9985C663.825 85.058 663.553 84.3296 663.01 83.8131C662.467 83.2965 661.692 83.0383 660.685 83.0383C659.904 83.0383 659.202 83.2302 658.58 83.6144C657.957 83.9852 657.467 84.5085 657.109 85.184C656.752 85.8594 656.573 86.6276 656.573 87.4886C656.573 88.4157 656.844 89.1443 657.387 89.674C657.944 90.1906 658.719 90.4489 659.712 90.4489Z" fill="#7A7A7A"/>
<path d="M687.042 81.3694C688.234 81.3694 689.161 81.6741 689.823 82.2833C690.499 82.8793 690.836 83.7336 690.836 84.8462C690.836 85.1509 690.79 85.5681 690.697 86.0979L689.525 91.9985H687.618L688.79 86.0979C688.856 85.7271 688.889 85.4224 688.889 85.184C688.889 84.4953 688.697 83.972 688.313 83.6144C687.929 83.2568 687.346 83.078 686.565 83.078C685.585 83.078 684.777 83.3561 684.141 83.9124C683.518 84.4556 683.094 85.2766 682.869 86.376L681.737 91.9985H679.83L681.022 86.0979C681.088 85.7402 681.121 85.4422 681.121 85.2038C681.121 84.5152 680.922 83.9919 680.525 83.6343C680.141 83.2635 679.558 83.078 678.777 83.078C677.797 83.078 676.989 83.3561 676.353 83.9124C675.73 84.4687 675.306 85.3099 675.081 86.4356L673.969 91.9985H672.062L674.148 81.4687H675.975L675.717 82.78C676.644 81.8395 677.863 81.3694 679.373 81.3694C680.194 81.3694 680.896 81.5283 681.479 81.8462C682.061 82.1641 682.485 82.6277 682.75 83.2369C683.823 81.992 685.254 81.3694 687.042 81.3694Z" fill="#7A7A7A"/>
<path d="M699.352 92.1177C698.478 92.1177 697.644 92.0052 696.849 91.78C696.068 91.5547 695.458 91.2634 695.021 90.9058L695.876 89.3959C696.286 89.7269 696.816 89.9919 697.465 90.1906C698.127 90.3761 698.816 90.4687 699.531 90.4687C700.432 90.4687 701.114 90.3363 701.578 90.0714C702.054 89.7932 702.293 89.409 702.293 88.9191C702.293 88.5217 702.101 88.2368 701.717 88.0647C701.346 87.8926 700.763 87.7203 699.968 87.5482C699.226 87.3892 698.617 87.2303 698.14 87.0714C697.677 86.8993 697.279 86.6343 696.948 86.2767C696.617 85.9059 696.452 85.4092 696.452 84.7866C696.452 84.0979 696.644 83.4952 697.028 82.9787C697.425 82.4621 697.982 82.0647 698.697 81.7866C699.425 81.5085 700.266 81.3694 701.22 81.3694C701.922 81.3694 702.604 81.4556 703.266 81.6277C703.929 81.7998 704.471 82.0317 704.895 82.323L704.14 83.833C703.73 83.5548 703.253 83.3494 702.71 83.2171C702.167 83.0713 701.611 82.9985 701.041 82.9985C700.18 82.9985 699.518 83.1443 699.054 83.4356C698.591 83.7137 698.359 84.0912 698.359 84.5681C698.359 84.992 698.551 85.2965 698.935 85.482C699.319 85.6541 699.915 85.8264 700.723 85.9985C701.452 86.1575 702.048 86.3164 702.511 86.4753C702.975 86.6343 703.366 86.8926 703.683 87.2502C704.015 87.6078 704.18 88.0913 704.18 88.7005C704.18 89.7734 703.736 90.6145 702.849 91.2237C701.975 91.8197 700.809 92.1177 699.352 92.1177Z" fill="#7A7A7A"/>
<path d="M613.512 99.3794H614.377V101.386H613.512V99.3794ZM608.704 98.2072H617.287V99.737H616.403V98.982H609.549V99.737H608.704V98.2072ZM608.734 99.9555H613.065V100.611H608.734V99.9555ZM613.771 99.9754H617.188V100.591H613.771V99.9754ZM614.039 103.134H616.86V103.651H614.039V103.134ZM614.039 104.048H616.81V104.555H614.039V104.048ZM614.039 104.952H617.089V105.469H614.039V104.952ZM608.526 101.446H613.204V102.131H608.526V101.446ZM609.34 100.681L610.085 100.552C610.224 100.85 610.363 101.257 610.403 101.515L609.618 101.674C609.589 101.416 609.469 100.999 609.34 100.681ZM611.645 100.522L612.449 100.71C612.281 101.118 612.112 101.495 611.983 101.773L611.267 101.605C611.396 101.297 611.565 100.84 611.645 100.522ZM611.863 102.558H612.718V105.965C612.718 106.353 612.638 106.542 612.37 106.651C612.112 106.76 611.704 106.76 611.158 106.76C611.118 106.552 611.009 106.283 610.91 106.095C611.267 106.105 611.615 106.105 611.714 106.105C611.834 106.095 611.863 106.065 611.863 105.965V102.558ZM613.512 102.151H616.214V101.624H613.512V101.038H617.089V102.737H613.512V102.151ZM613.512 102.35H614.377V105.638C614.377 105.946 614.446 106.005 614.903 106.005C615.112 106.005 616.155 106.005 616.423 106.005C616.761 106.005 616.83 105.896 616.87 105.31C617.049 105.429 617.377 105.548 617.615 105.598C617.526 106.472 617.277 106.72 616.502 106.72C616.284 106.72 615.022 106.72 614.804 106.72C613.81 106.72 613.512 106.502 613.512 105.648V102.35ZM610.353 99.4092L611.128 99.29C611.297 99.5383 611.466 99.8959 611.536 100.134L610.741 100.293C610.671 100.055 610.512 99.6774 610.353 99.4092ZM612.291 97.631L613.274 97.4622C613.463 97.7304 613.642 98.0979 613.721 98.3463L612.698 98.535C612.638 98.2867 612.459 97.8992 612.291 97.631ZM609.539 102.558H612.251V103.144H609.539V102.558ZM609.112 102.558H609.857V104.177C609.857 105.002 609.757 106.114 609.241 106.86C609.102 106.72 608.794 106.492 608.615 106.403C609.062 105.737 609.112 104.853 609.112 104.167V102.558ZM609.757 105.181C610.344 105.042 611.158 104.793 612.002 104.555L612.082 105.032C611.357 105.33 610.642 105.598 610.026 105.836L609.757 105.181ZM609.966 103.899L610.254 103.442C610.721 103.571 611.357 103.78 611.695 103.939L611.416 104.456C611.079 104.297 610.453 104.058 609.966 103.899Z" fill="#7A7A7A"/>
<path d="M624.668 97.5417L625.522 97.7106C625.155 99.3497 624.499 100.889 623.674 101.883C623.525 101.734 623.158 101.466 622.959 101.346C623.774 100.462 624.35 99.0318 624.668 97.5417ZM628.055 99.161H628.949C628.949 99.161 628.939 99.4888 628.929 99.608C628.721 104.108 628.522 105.697 628.135 106.194C627.916 106.492 627.718 106.591 627.4 106.641C627.131 106.681 626.704 106.681 626.267 106.651C626.247 106.383 626.158 105.985 626.009 105.727C626.416 105.767 626.794 105.777 626.982 105.777C627.141 105.777 627.231 105.737 627.35 105.598C627.658 105.24 627.867 103.671 628.055 99.3696V99.161ZM624.757 99.161H628.443V100.035H624.34L624.757 99.161ZM625.631 99.4391L626.327 99.7868C625.91 101.525 624.996 103.502 623.893 104.495C623.704 104.317 623.406 104.098 623.158 103.959C624.32 103.045 625.234 101.148 625.631 99.4391ZM627.032 99.5186L627.777 99.8662C627.28 102.499 626.198 105.221 624.539 106.572C624.36 106.383 624.022 106.144 623.764 106.015C625.492 104.774 626.565 102.121 627.032 99.5186ZM619.751 103.015C620.704 102.787 622.135 102.37 623.496 101.972L623.615 102.797C622.363 103.194 621.012 103.611 619.989 103.919L619.751 103.015ZM621.578 97.5517H622.443V106.76H621.578V97.5517ZM620.307 98.1179L621.112 98.247C620.972 99.5682 620.724 100.929 620.357 101.813C620.218 101.704 619.86 101.485 619.671 101.396C620.019 100.572 620.208 99.3199 620.307 98.1179ZM620.466 99.5285H623.386V100.432H620.297L620.466 99.5285Z" fill="#7A7A7A"/>
<path d="M635.237 98.1278H640.105V99.0219H635.237V98.1278ZM637.969 101.148H638.933V105.628C638.933 106.164 638.814 106.442 638.436 106.591C638.059 106.73 637.463 106.74 636.529 106.74C636.489 106.472 636.36 106.075 636.231 105.797C636.876 105.827 637.542 105.827 637.721 105.817C637.91 105.807 637.969 105.767 637.969 105.608V101.148ZM634.8 100.879H640.373V101.774H634.8V100.879ZM632.714 101.823L633.539 100.999L633.648 101.048V106.79H632.714V101.823ZM633.847 99.6874L634.741 100.025C633.966 101.307 632.774 102.638 631.721 103.492C631.582 103.303 631.254 102.886 631.065 102.697C632.088 101.972 633.181 100.82 633.847 99.6874ZM633.459 97.5417L634.363 97.9093C633.668 98.8133 632.625 99.8066 631.711 100.452C631.582 100.244 631.333 99.8762 631.174 99.6874C631.999 99.1411 632.963 98.247 633.459 97.5417Z" fill="#7A7A7A"/>
<path d="M644.317 102.817H651.072V103.631H644.317V102.817ZM643.006 99.2105H649.542V100.065H643.006V99.2105ZM645.867 101.018H650.397V101.833H645.867V101.018ZM650.695 102.817H651.628C651.628 102.817 651.618 103.075 651.599 103.194C651.42 105.26 651.241 106.105 650.923 106.432C650.714 106.651 650.506 106.73 650.188 106.76C649.93 106.78 649.443 106.78 648.926 106.76C648.916 106.502 648.807 106.134 648.658 105.896C649.135 105.946 649.582 105.956 649.781 105.946C649.95 105.946 650.049 105.936 650.148 105.846C650.367 105.628 650.546 104.863 650.695 102.956V102.817ZM648.529 104.088L649.175 103.85C649.473 104.257 649.771 104.813 649.88 105.171L649.195 105.439C649.085 105.081 648.797 104.505 648.529 104.088ZM644.188 97.8894L645.022 97.5615C645.39 97.949 645.817 98.5052 646.016 98.8827L645.132 99.2602C644.963 98.8827 644.555 98.3066 644.188 97.8894ZM645.559 104.336L646.324 104.247C646.512 104.883 646.612 105.707 646.612 106.254L645.797 106.363C645.827 105.826 645.728 104.992 645.559 104.336ZM647.039 104.257L647.764 104.088C648.012 104.634 648.251 105.35 648.33 105.826L647.555 106.025C647.496 105.548 647.267 104.813 647.039 104.257ZM644.257 104.068L645.052 104.326C644.834 105.171 644.506 106.105 643.91 106.72L643.185 106.204C643.711 105.687 644.079 104.843 644.257 104.068ZM647.218 97.5317L648.181 97.7701C647.287 100.581 645.738 103.224 643.026 104.764C642.916 104.535 642.678 104.168 642.519 103.959C645.012 102.618 646.502 100.085 647.218 97.5317ZM649.344 99.2105H650.218C650.079 99.9258 649.9 100.77 649.741 101.326L648.916 101.197C649.065 100.671 649.234 99.8562 649.344 99.2105ZM650.049 101.018H650.923C650.784 101.724 650.615 102.568 650.456 103.115L649.622 103.015C649.781 102.469 649.95 101.664 650.049 101.018Z" fill="#7A7A7A"/>
<path d="M657.767 99.0616H663.181V99.747H657.767V99.0616ZM662.118 97.5715L662.734 98.1477C661.532 98.4457 659.675 98.5749 658.155 98.5947C658.125 98.4159 658.026 98.1477 657.946 97.9788C659.406 97.9292 661.175 97.81 662.118 97.5715ZM661.433 99.2802C661.81 99.906 662.595 100.562 663.37 100.85C663.191 101.009 662.933 101.287 662.814 101.495C662.009 101.108 661.234 100.293 660.817 99.4987L661.433 99.2802ZM657.767 102.628H662.446V103.333H658.592V106.75H657.767V102.628ZM659.178 103.78H659.863V106.055H659.178V103.78ZM662.228 102.628H663.082V105.866C663.082 106.254 663.012 106.482 662.734 106.611C662.466 106.73 662.079 106.74 661.522 106.74C661.482 106.522 661.353 106.194 661.234 105.985C661.602 105.995 661.979 105.995 662.079 105.995C662.198 105.985 662.228 105.956 662.228 105.856V102.628ZM659.545 103.78H661.661V105.628H659.545V105.072H660.996V104.336H659.545V103.78ZM659.526 100.899V101.595H661.353V100.899H659.526ZM658.761 100.283H662.158V102.201H658.761V100.283ZM659.704 98.1775L660.529 98.3166C660.161 99.6378 659.327 100.889 658.026 101.525C657.916 101.356 657.698 101.068 657.549 100.929C658.721 100.373 659.456 99.2901 659.704 98.1775ZM655.661 99.2404H656.516V101.128C656.516 102.757 656.237 105.121 654.638 106.631C654.509 106.462 654.171 106.134 653.992 106.015C655.492 104.605 655.661 102.598 655.661 101.118V99.2404ZM654.986 98.7636H657.588V99.6179H654.986V98.7636ZM654.151 101.336H657.757V102.211H654.151V101.336ZM656.297 102.727C656.585 103.045 657.598 104.436 657.817 104.754L657.201 105.519C656.883 104.913 656.088 103.711 655.741 103.214L656.297 102.727ZM654.827 97.5417L655.661 97.6908C655.482 98.9821 655.155 100.274 654.698 101.108C654.539 100.989 654.181 100.74 653.992 100.641C654.43 99.8762 654.688 98.704 654.827 97.5417Z" fill="#7A7A7A"/>
<path d="M665.973 98.2371H674.297V99.151H665.973V98.2371ZM670.334 101.605H673.86V102.528H670.334V101.605ZM665.615 105.439H674.605V106.353H665.615V105.439ZM669.887 98.5947H670.87V105.886H669.887V98.5947ZM666.916 100.86H667.89V105.926H666.916V100.86Z" fill="#7A7A7A"/>
<path d="M709.911 70.3927H679.013C679.013 70.3927 678.217 69.741 678.137 69.415C669.139 67.0838 672.563 55.578 680.446 56.7812C680.446 50.6145 686.737 49.9378 689.604 51.141C692.79 49.8174 695.285 50.9905 696.134 51.7425C700.232 48.0976 704.177 49.0353 707.442 51.141C709.423 52.7523 710.946 55.3599 710.946 57.2324C715.762 59.4626 715.423 63.6246 714.291 65.8805C713.373 67.7088 711.742 68.663 711.742 68.663C711.742 68.663 711.742 69.9414 709.911 70.3927Z" fill="#184C18"/>
<path d="M650.195 75.6079H689.453C689.453 75.6079 690.465 74.7951 690.566 74.3888C702 71.4815 697.649 57.1331 687.632 58.6336C687.632 50.9434 679.639 50.0995 675.996 51.6C671.949 49.9492 668.778 51.4122 667.699 52.3502C662.492 47.8045 657.48 48.974 653.332 51.6C650.815 53.6093 648.879 56.8612 648.879 59.1961C642.76 61.9773 643.191 67.1677 644.63 69.981C645.796 72.261 647.868 73.4511 647.868 73.4511C647.868 73.4511 647.868 75.0452 650.195 75.6079Z" fill="#2F772F"/>
<path d="M705.522 63.3994C705.201 65.1227 704.8 65.1227 704.8 65.1227C704.8 65.1227 704.344 65.1227 704.077 63.3994C703.929 62.4456 704.4 62.4456 704.8 62.4456C705.199 62.4456 705.7 62.4456 705.522 63.3994Z" fill="#FFE3E3"/>
<path d="M706.566 65.0049C705.107 65.5468 704.906 65.1469 704.906 65.1469C704.906 65.1469 704.678 64.694 705.843 63.5657C706.487 62.9414 706.723 63.411 706.923 63.8084C707.122 64.2057 707.373 64.7049 706.566 65.0049Z" fill="#FFE3E3"/>
<path d="M703.073 65.0664C704.532 65.6081 704.732 65.2085 704.732 65.2085C704.732 65.2085 704.96 64.7555 703.796 63.6273C703.151 63.0029 702.915 63.4725 702.716 63.8699C702.516 64.2672 702.265 64.7664 703.073 65.0664Z" fill="#FFE3E3"/>
<path d="M703.377 65.5405C704.664 64.5828 704.948 64.9094 704.948 64.9094C704.948 64.9094 705.27 65.2792 704.399 66.7154C703.917 67.5103 703.584 67.1269 703.301 66.8023C703.019 66.4779 702.665 66.0704 703.377 65.5405Z" fill="#FFE3E3"/>
<path d="M706.204 65.5405C704.917 64.5828 704.633 64.9094 704.633 64.9094C704.633 64.9094 704.311 65.2792 705.182 66.7154C705.664 67.5103 705.998 67.1269 706.28 66.8023C706.562 66.4779 706.917 66.0704 706.204 65.5405Z" fill="#FFE3E3"/>
<path d="M705.21 64.9072C705.21 65.1956 705.01 65.3987 704.798 65.3987C704.587 65.3987 704.387 65.1956 704.387 64.9072C704.387 64.6192 704.587 64.416 704.798 64.416C705.01 64.416 705.21 64.6192 705.21 64.9072Z" fill="#FFEA9F" stroke="white"/>
<path d="M658.937 65.1182C658.455 67.703 657.853 67.703 657.853 67.703C657.853 67.703 657.17 67.703 656.769 65.1182C656.546 63.6873 657.254 63.6873 657.853 63.6873C658.451 63.6873 659.203 63.6873 658.937 65.1182Z" fill="#FFE3E3"/>
<path d="M660.502 67.526C658.314 68.3389 658.012 67.7391 658.012 67.7391C658.012 67.7391 657.671 67.0596 659.418 65.3674C660.384 64.4309 660.738 65.1352 661.038 65.7315C661.337 66.3275 661.713 67.0763 660.502 67.526Z" fill="#FFE3E3"/>
<path d="M655.263 67.6184C657.451 68.431 657.752 67.8315 657.752 67.8315C657.752 67.8315 658.093 67.1521 656.347 65.4598C655.38 64.5231 655.026 65.2276 654.727 65.8237C654.428 66.4197 654.051 67.1684 655.263 67.6184Z" fill="#FFE3E3"/>
<path d="M655.719 68.3294C657.649 66.8934 658.075 67.3829 658.075 67.3829C658.075 67.3829 658.558 67.9377 657.252 70.0919C656.529 71.2844 656.029 70.709 655.605 70.2225C655.182 69.7357 654.65 69.1243 655.719 68.3294Z" fill="#FFE3E3"/>
<path d="M659.96 68.3294C658.029 66.8934 657.603 67.3829 657.603 67.3829C657.603 67.3829 657.121 67.9377 658.427 70.0919C659.15 71.2844 659.65 70.709 660.073 70.2225C660.497 69.7357 661.029 69.1243 659.96 68.3294Z" fill="#FFE3E3"/>
<path d="M658.53 67.38C658.53 67.8379 658.21 68.1789 657.851 68.1789C657.492 68.1789 657.172 67.8379 657.172 67.38C657.172 66.9218 657.492 66.5811 657.851 66.5811C658.21 66.5811 658.53 66.9218 658.53 67.38Z" fill="#FFEA9F" stroke="white"/>
<path d="M679.198 59.1778C678.877 60.901 678.475 60.901 678.475 60.901C678.475 60.901 678.02 60.901 677.753 59.1778C677.604 58.2239 678.076 58.2239 678.475 58.2239C678.874 58.2239 679.376 58.2239 679.198 59.1778Z" fill="#FFE3E3"/>
<path d="M680.241 60.783C678.782 61.3249 678.582 60.925 678.582 60.925C678.582 60.925 678.354 60.472 679.518 59.3438C680.163 58.7195 680.399 59.1891 680.599 59.5864C680.798 59.9838 681.049 60.483 680.241 60.783Z" fill="#FFE3E3"/>
<path d="M676.749 60.8445C678.207 61.3861 678.408 60.9865 678.408 60.9865C678.408 60.9865 678.636 60.5336 677.471 59.4053C676.827 58.781 676.591 59.2506 676.391 59.648C676.192 60.0453 675.941 60.5445 676.749 60.8445Z" fill="#FFE3E3"/>
<path d="M677.052 61.3188C678.34 60.3612 678.623 60.6877 678.623 60.6877C678.623 60.6877 678.945 61.0575 678.075 62.4937C677.593 63.2886 677.259 62.9052 676.977 62.5806C676.694 62.2563 676.34 61.8487 677.052 61.3188Z" fill="#FFE3E3"/>
<path d="M679.88 61.3188C678.593 60.3612 678.309 60.6877 678.309 60.6877C678.309 60.6877 677.987 61.0575 678.858 62.4937C679.34 63.2886 679.673 62.9052 679.956 62.5806C680.238 62.2563 680.592 61.8487 679.88 61.3188Z" fill="#FFE3E3"/>
<path d="M678.885 60.6853C678.885 60.9736 678.686 61.1768 678.474 61.1768C678.263 61.1768 678.063 60.9736 678.063 60.6853C678.063 60.3972 678.263 60.1941 678.474 60.1941C678.686 60.1941 678.885 60.3972 678.885 60.6853Z" fill="#FFEA9F" stroke="white"/>
<path d="M675.143 108.032L678.043 97.8203H678.867L675.978 108.032H675.143ZM679.99 98.7382H688.584V99.6144H679.99V98.7382ZM680.574 100.324H688.073V101.169H680.574V100.324ZM679.864 103.463H688.803V104.308H679.864V103.463ZM679.635 101.909H689.033V102.775H679.635V101.909ZM683.765 99.2597H684.777V102.577H683.765V99.2597ZM681.387 97.6534L682.263 97.2988C682.618 97.6847 682.973 98.2167 683.119 98.5817L682.201 98.9885C682.076 98.613 681.731 98.0498 681.387 97.6534ZM686.175 97.2988L687.218 97.5909C686.863 98.1541 686.456 98.7382 686.133 99.1241L685.257 98.8425C685.57 98.4253 685.956 97.7682 686.175 97.2988ZM683.671 102.556H684.704C684.454 104.965 683.776 106.384 679.948 107.01C679.875 106.759 679.635 106.342 679.447 106.123C682.983 105.633 683.463 104.527 683.671 102.556ZM684.339 105.049L684.777 104.308C686.154 104.798 688.073 105.633 689.033 106.217L688.563 107.072C687.645 106.467 685.747 105.591 684.339 105.049ZM692.902 99.5309L693.831 99.8334C693.153 100.762 692.089 101.638 691.129 102.18C690.983 101.993 690.649 101.596 690.441 101.419C691.38 100.97 692.339 100.271 692.902 99.5309ZM695.51 100.105L696.178 99.5414C697.095 100.084 698.285 100.918 698.869 101.502L698.159 102.149C697.607 101.565 696.449 100.689 695.51 100.105ZM691.766 103.494H697.711V107.01H696.71V104.371H692.715V107.041H691.766V103.494ZM692.277 105.841H697.179V106.718H692.277V105.841ZM690.316 98.2584H699.129V100.313H698.128V99.1554H691.286V100.313H690.316V98.2584ZM693.935 97.4865L694.957 97.2571C695.197 97.6534 695.447 98.1854 695.552 98.54L694.477 98.7904C694.394 98.4461 694.154 97.9038 693.935 97.4865ZM694.603 100.459L695.458 100.835C694.352 102.587 692.506 103.943 690.483 104.767C690.337 104.527 690.086 104.183 689.857 103.974C691.786 103.286 693.622 102.034 694.603 100.459ZM695.041 100.835C696.261 102.285 697.784 103.14 699.567 103.818C699.338 104.026 699.067 104.35 698.942 104.642C697.106 103.818 695.604 102.869 694.248 101.21L695.041 100.835Z" fill="#7A7A7A"/>
</g>
<mask id="mask0_359_6003" style="mask-type:alpha" maskUnits="userSpaceOnUse" x="1020" y="0" width="260" height="254">
<rect x="1020.23" width="259" height="254" fill="#D9D9D9"/>
</mask>
<g mask="url(#mask0_359_6003)">
<g filter="url(#filter0_d_359_6003)">
<path fill-rule="evenodd" clip-rule="evenodd" d="M1379.32 -57.09C1365.83 -88.9249 1329.33 -111.472 1286.72 -110.936C1258.1 -110.577 1232.51 -99.881 1214.94 -83.1535C1201.95 -89.2938 1186.89 -92.7166 1170.86 -92.5152C1122.67 -91.9097 1084.02 -58.763 1084.52 -18.48C1084.6 -12.0023 1085.69 -5.73461 1087.66 0.220712C1056.55 12.7827 1035.81 35.8016 1036.13 61.8644C1036.45 87.4302 1056.98 109.558 1087.41 121.509C1086.72 125.897 1086.39 130.417 1086.45 135.031C1086.96 175.782 1117.6 208.438 1154.88 207.97C1166.56 207.823 1177.5 204.443 1187.01 198.616C1201.72 215.533 1221.53 225.794 1243.19 225.522C1262.78 225.276 1280.63 216.463 1294.43 202.007C1305.63 225.104 1326.96 240.586 1351.23 240.281C1371.76 240.023 1389.9 228.533 1401.43 210.861C1412.77 218.691 1426.65 223.217 1441.58 223.029C1479.32 222.555 1509.53 192.173 1509.06 155.168C1508.94 145.216 1506.61 135.799 1502.53 127.357C1532.09 118.966 1553.55 91.8775 1553.15 60.0336C1552.67 21.8584 1520.96 -8.69504 1482.31 -8.20949L1482.27 -8.20894C1482.29 -9.05352 1482.29 -9.90192 1482.28 -10.7539C1481.81 -47.758 1454.53 -77.4178 1421.35 -77.0008C1404.86 -76.7937 1390.02 -69.2074 1379.32 -57.09Z" fill="url(#paint0_radial_359_6003)"/>
</g>
</g>
<path d="M1208.6 95.9937H1166.41C1165.63 95.9937 1165 96.3452 1165 96.7749V98.3374C1165 98.7671 1165.63 99.1187 1166.41 99.1187H1208.6C1209.37 99.1187 1210 98.7671 1210 98.3374V96.7749C1210 96.3452 1209.37 95.9937 1208.6 95.9937ZM1208.6 89.7437H1166.41C1165.63 89.7437 1165 90.0952 1165 90.5249V92.0874C1165 92.5171 1165.63 92.8687 1166.41 92.8687H1208.6C1209.37 92.8687 1210 92.5171 1210 92.0874V90.5249C1210 90.0952 1209.37 89.7437 1208.6 89.7437Z" fill="#888888"/>
<defs>
<filter id="filter0_d_359_6003" x="1032.13" y="-112.946" width="533.027" height="367.231" filterUnits="userSpaceOnUse" color-interpolation-filters="sRGB">
<feFlood flood-opacity="0" result="BackgroundImageFix"/>
<feColorMatrix in="SourceAlpha" type="matrix" values="0 0 0 0 0 0 0 0 0 0 0 0 0 0 0 0 0 0 127 0" result="hardAlpha"/>
<feOffset dx="4" dy="6"/>
<feGaussianBlur stdDeviation="4"/>
<feComposite in2="hardAlpha" operator="out"/>
<feColorMatrix type="matrix" values="0 0 0 0 0 0 0 0 0 0 0 0 0 0 0 0 0 0 0.3 0"/>
<feBlend mode="normal" in2="BackgroundImageFix" result="effect1_dropShadow_359_6003"/>
<feBlend mode="normal" in="SourceGraphic" in2="effect1_dropShadow_359_6003" result="shape"/>
</filter>
<radialGradient id="paint0_radial_359_6003" cx="0" cy="0" r="1" gradientUnits="userSpaceOnUse" gradientTransform="translate(1296.51 209.583) rotate(-109.416) scale(320.7 900.421)">
<stop offset="0.145833" stop-color="white"/>
<stop offset="0.635417" stop-color="white"/>
<stop offset="1" stop-color="#ECECEC"/>
</radialGradient>
<clipPath id="clip0_359_6003">
<rect width="150" height="90.3974" fill="white" transform="translate(565.001 17.7437)"/>
</clipPath>
</defs>
</svg>
