<svg width="604" height="364" viewBox="0 0 604 364" fill="none" xmlns="http://www.w3.org/2000/svg">
<path fill-rule="evenodd" clip-rule="evenodd" d="M443.042 4.01154C441.152 6.21674 437.214 12.406 434.29 17.7654L428.976 27.5077H411.681H394.388L390.159 19.6061C385.61 11.1131 375.836 0.806893 374.042 2.61323C368.769 7.91534 365.416 149 370.562 149C371.998 149 372.939 131.821 373.103 102.581C373.249 77.049 373.604 55.13 373.896 53.8692C374.188 52.6085 374.582 42.5521 374.774 31.5192C374.963 20.4886 375.89 11.4799 376.829 11.5028C377.768 11.528 381.615 16.4267 385.375 22.3913C390.332 30.2562 393.623 33.1926 397.34 33.0757C400.161 32.984 409.026 32.7273 417.043 32.5026L431.62 32.0923L439.263 20.0783L446.907 8.06205L447.458 20.6514C450.234 83.9649 455.849 144.012 459.32 147.503C462.561 150.763 462.424 144.046 458.363 100.862C456.526 81.3196 454.578 53.4681 454.031 38.9692C453.021 12.1951 451.182 0 448.153 0C447.228 0 444.929 1.80634 443.042 4.01154ZM497.424 38.2059C496.588 39.0449 495.904 43.547 495.904 48.2095C495.904 54.3369 494.028 58.8367 489.138 64.4459C480.913 73.8811 478.495 87.0229 482.65 99.7154C485.07 107.12 487.561 109.767 495.58 113.469L505.512 118.054L504.432 133.527C503.837 142.036 504.156 149 505.143 149C507.328 149 509.147 140.161 510.045 125.194C510.761 113.263 510.441 112.846 496.69 107.741C488.96 104.868 486.868 100.348 486.82 86.3833C486.784 76.5608 490.036 69.0764 496.266 64.627C499.129 62.5846 500.462 58.761 500.462 52.5924C500.462 41.1057 503.45 41.1446 510.717 52.7231L516.472 61.8923H531.973C547.447 61.8923 547.483 61.8763 551.28 53.8692C555.975 43.9665 559.715 43.5309 559.715 52.8881C559.715 56.7598 562.449 64.6247 565.792 70.3601C572.379 81.6657 573.999 98.0351 569.117 103.952C567.604 105.788 561.793 108.646 556.203 110.306C550.615 111.965 546.041 114.239 546.041 115.358C546.041 119.736 553.336 145.669 555.077 147.48C559.058 151.62 559.728 143.925 556.478 131.404C554.601 124.17 553.279 118.15 553.541 118.029C553.803 117.907 558.258 115.956 563.441 113.689C579.035 106.877 582.228 91.4401 572.411 70.3463C569.366 63.8064 566.155 54.3277 565.275 49.2846C564.393 44.2415 563.233 39.3383 562.695 38.3893C560.895 35.2144 552.565 41.532 547.764 49.7179C543.174 57.5415 542.634 57.7822 531.923 56.7461C522.338 55.82 519.733 54.385 512.748 46.1762C505.022 37.0964 500.74 34.8706 497.424 38.2059ZM394.491 61.8923C393.582 63.3731 393.862 65.615 395.115 66.8758C396.635 68.4048 397.946 68.2718 399.049 66.4769C399.958 64.9961 399.678 62.7542 398.424 61.4934C396.904 59.9645 395.594 60.0974 394.491 61.8923ZM425.257 65.1405C425.257 67.1371 426.879 68.7692 428.864 68.7692C432.889 68.7692 432.189 63.8339 427.964 62.4172C426.474 61.9175 425.257 63.1439 425.257 65.1405ZM405.56 76.8221C404.831 78.7293 405.425 81.7322 406.882 83.495C410.437 87.8046 406.69 89.9135 398.584 88.1667C392.777 86.9174 392.568 87.0871 396.221 90.0854C401.455 94.3812 424.84 93.7852 427.606 89.2854C430.321 84.8681 428.356 83.5684 424.202 87.0366C422.308 88.6183 419.161 89.2968 417.212 88.545C414.336 87.4355 414.161 86.2458 416.278 82.2663C418.322 78.4221 418.219 76.9276 415.806 75.3894C411.114 72.4002 407.027 72.971 405.56 76.8221ZM509.578 83.6692C509.578 85.7713 510.681 87.1191 512.028 86.6676C513.374 86.216 514.477 84.8681 514.477 83.6692C514.477 82.4704 513.374 81.1225 512.028 80.6709C510.681 80.2193 509.578 81.5672 509.578 83.6692ZM541.483 84.8154C541.483 86.0761 543.021 87.1077 544.901 87.1077C546.782 87.1077 548.32 86.0761 548.32 84.8154C548.32 83.5546 546.782 82.5231 544.901 82.5231C543.021 82.5231 541.483 83.5546 541.483 84.8154ZM525.02 95.3852C526.052 100.811 525.651 101.21 520.735 99.6397C516.086 98.1566 515.717 98.3996 518.149 101.348C521.697 105.648 537.281 105.533 538.716 101.194C539.473 98.9039 538.393 98.5188 534.601 99.7291C530.008 101.196 529.582 100.733 530.599 95.3852C531.467 90.8075 530.813 89.4 527.809 89.4C524.806 89.4 524.152 90.8075 525.02 95.3852Z" fill="#7A7A7A"/>
<g filter="url(#filter0_d_335_2030)">
<path d="M21.6803 201.64C17.5203 201.64 13.4936 201 9.60031 199.72C5.76031 198.44 2.80034 196.813 0.720337 194.84L4.24033 188.44C6.37366 190.413 9.06698 191.987 12.3203 193.16C15.5736 194.28 18.9337 194.84 22.4003 194.84C26.987 194.84 30.6403 194.013 33.3603 192.36C36.1337 190.653 37.5203 188.307 37.5203 185.32C37.5203 183.72 36.987 182.387 35.9203 181.32C34.8537 180.253 33.547 179.4 32.0003 178.76C30.4537 178.12 28.267 177.373 25.4403 176.52C21.867 175.453 18.987 174.44 16.8003 173.48C14.6137 172.52 12.7203 171.107 11.1203 169.24C9.57366 167.32 8.80032 164.813 8.80032 161.72C8.80032 158.2 9.78698 155.133 11.7603 152.52C13.7336 149.907 16.4803 147.907 20.0003 146.52C23.5203 145.08 27.547 144.36 32.0803 144.36C35.547 144.36 38.827 144.787 41.9203 145.64C45.067 146.44 47.787 147.587 50.0803 149.08L46.8803 155.64C44.8003 154.147 42.4537 153.027 39.8403 152.28C37.2803 151.533 34.5603 151.16 31.6803 151.16C27.0937 151.16 23.4403 152.067 20.7203 153.88C18.0003 155.64 16.6403 158.013 16.6403 161C16.6403 162.653 17.1737 164.04 18.2403 165.16C19.3603 166.28 20.7203 167.16 22.3203 167.8C23.9736 168.44 26.2136 169.187 29.0403 170.04C32.5603 171.107 35.387 172.12 37.5203 173.08C39.707 173.987 41.547 175.347 43.0403 177.16C44.587 178.973 45.3603 181.32 45.3603 184.2C45.3603 187.773 44.347 190.867 42.3203 193.48C40.347 196.093 37.5737 198.12 34.0003 199.56C30.427 200.947 26.3203 201.64 21.6803 201.64Z" fill="#7A7A7A"/>
<path d="M137.688 158.6L133.368 182.28C132.141 188.573 129.688 193.347 126.008 196.6C122.381 199.853 117.901 201.48 112.568 201.48C109.048 201.48 106.088 200.84 103.688 199.56C101.341 198.227 99.6078 196.44 98.4878 194.2C96.5678 196.653 94.2478 198.493 91.5278 199.72C88.8078 200.893 85.9278 201.48 82.8878 201.48C77.7678 201.48 73.8211 200.173 71.0478 197.56C68.3278 194.893 66.9678 191.32 66.9678 186.84C66.9678 185.4 67.1278 183.88 67.4478 182.28L72.0078 158.6H79.2078L74.8078 182.12C74.5412 183.293 74.4078 184.6 74.4078 186.04C74.4078 191.747 77.5545 194.6 83.8478 194.6C87.2078 194.6 89.9811 193.587 92.1678 191.56C94.3545 189.533 95.8745 186.493 96.7278 182.44L101.208 158.6H108.408L104.008 182.12C103.741 183.72 103.608 185.027 103.608 186.04C103.608 191.747 106.754 194.6 113.048 194.6C120.141 194.6 124.514 190.253 126.168 181.56L130.488 158.6H137.688Z" fill="#7A7A7A"/>
<path d="M178.777 158.2C184.59 158.2 189.203 159.827 192.617 163.08C196.083 166.333 197.817 170.973 197.817 177C197.817 177.853 197.79 178.52 197.737 179L162.697 185.48C163.71 191.667 168.11 194.76 175.897 194.76C178.563 194.76 181.043 194.333 183.337 193.48C185.63 192.627 187.523 191.427 189.017 189.88L192.297 195.4C190.217 197.373 187.683 198.893 184.697 199.96C181.763 200.973 178.617 201.48 175.257 201.48C171.097 201.48 167.497 200.733 164.457 199.24C161.417 197.747 159.07 195.613 157.417 192.84C155.763 190.067 154.937 186.813 154.937 183.08C154.937 178.387 155.95 174.147 157.977 170.36C160.057 166.573 162.883 163.613 166.457 161.48C170.083 159.293 174.19 158.2 178.777 158.2ZM178.537 164.6C174.217 164.6 170.617 165.987 167.737 168.76C164.857 171.533 163.15 175.24 162.617 179.88L190.697 174.68C190.43 171.48 189.203 169 187.017 167.24C184.83 165.48 182.003 164.6 178.537 164.6Z" fill="#7A7A7A"/>
<path d="M239.292 158.2C245.105 158.2 249.719 159.827 253.132 163.08C256.599 166.333 258.332 170.973 258.332 177C258.332 177.853 258.306 178.52 258.252 179L223.212 185.48C224.226 191.667 228.626 194.76 236.412 194.76C239.079 194.76 241.559 194.333 243.852 193.48C246.145 192.627 248.039 191.427 249.532 189.88L252.812 195.4C250.732 197.373 248.199 198.893 245.212 199.96C242.279 200.973 239.132 201.48 235.772 201.48C231.612 201.48 228.012 200.733 224.972 199.24C221.932 197.747 219.586 195.613 217.932 192.84C216.279 190.067 215.452 186.813 215.452 183.08C215.452 178.387 216.466 174.147 218.492 170.36C220.572 166.573 223.399 163.613 226.972 161.48C230.599 159.293 234.705 158.2 239.292 158.2ZM239.052 164.6C234.732 164.6 231.132 165.987 228.252 168.76C225.372 171.533 223.666 175.24 223.132 179.88L251.212 174.68C250.946 171.48 249.719 169 247.532 167.24C245.346 165.48 242.519 164.6 239.052 164.6Z" fill="#7A7A7A"/>
<path d="M285.968 187.48C285.808 188.28 285.728 189.027 285.728 189.72C285.728 191.373 286.181 192.68 287.088 193.64C288.048 194.547 289.435 195 291.248 195C293.488 195 295.515 194.333 297.328 193L298.928 198.84C296.368 200.6 293.088 201.48 289.088 201.48C285.728 201.48 283.035 200.547 281.008 198.68C278.981 196.813 277.968 194.227 277.968 190.92C277.968 189.747 278.074 188.653 278.288 187.64L285.968 149.32H293.648L291.808 158.6H303.888L302.608 164.92H290.528L285.968 187.48Z" fill="#7A7A7A"/>
<path d="M190.803 243H212.723C218.323 243 223.123 243.96 227.123 245.88C231.177 247.747 234.243 250.413 236.323 253.88C238.457 257.293 239.523 261.32 239.523 265.96C239.523 272.467 238.057 278.227 235.123 283.24C232.243 288.253 228.163 292.147 222.883 294.92C217.657 297.64 211.577 299 204.643 299H179.603L190.803 243ZM204.883 292.04C210.27 292.04 214.963 290.947 218.963 288.76C222.963 286.573 226.03 283.56 228.163 279.72C230.35 275.827 231.443 271.4 231.443 266.44C231.443 261.267 229.79 257.24 226.483 254.36C223.177 251.427 218.323 249.96 211.923 249.96H197.363L188.963 292.04H204.883Z" fill="#7A7A7A"/>
<path d="M271.217 262.92C273.084 260.573 275.377 258.867 278.097 257.8C280.817 256.733 284.124 256.2 288.017 256.2L286.577 263.64C286.097 263.587 285.431 263.56 284.577 263.56C275.777 263.56 270.444 268.307 268.577 277.8L264.337 299H256.657L265.057 256.6H272.417L271.217 262.92Z" fill="#7A7A7A"/>
<path d="M324.292 256.2C330.106 256.2 334.719 257.827 338.132 261.08C341.599 264.333 343.332 268.973 343.332 275C343.332 275.853 343.306 276.52 343.252 277L308.212 283.48C309.226 289.667 313.626 292.76 321.412 292.76C324.079 292.76 326.559 292.333 328.852 291.48C331.146 290.627 333.039 289.427 334.532 287.88L337.812 293.4C335.732 295.373 333.199 296.893 330.212 297.96C327.279 298.973 324.132 299.48 320.772 299.48C316.612 299.48 313.012 298.733 309.972 297.24C306.932 295.747 304.586 293.613 302.932 290.84C301.279 288.067 300.452 284.813 300.452 281.08C300.452 276.387 301.466 272.147 303.492 268.36C305.572 264.573 308.399 261.613 311.972 259.48C315.599 257.293 319.706 256.2 324.292 256.2ZM324.052 262.6C319.732 262.6 316.132 263.987 313.252 266.76C310.372 269.533 308.666 273.24 308.132 277.88L336.212 272.68C335.946 269.48 334.719 267 332.532 265.24C330.346 263.48 327.519 262.6 324.052 262.6Z" fill="#7A7A7A"/>
<path d="M408.568 293C410.008 293 411.314 292.76 412.488 292.28L411.688 298.52C410.088 299.16 408.195 299.48 406.008 299.48C403.288 299.48 401.048 298.867 399.288 297.64C397.528 296.36 396.435 294.627 396.008 292.44C394.035 294.733 391.661 296.493 388.888 297.72C386.168 298.893 383.101 299.48 379.688 299.48C376.061 299.48 372.835 298.76 370.008 297.32C367.181 295.827 364.968 293.693 363.368 290.92C361.768 288.147 360.968 284.893 360.968 281.16C360.968 276.36 362.008 272.067 364.088 268.28C366.168 264.493 369.021 261.533 372.648 259.4C376.328 257.267 380.434 256.2 384.968 256.2C388.594 256.2 391.688 256.84 394.248 258.12C396.861 259.4 398.861 261.293 400.248 263.8L401.688 256.6H409.368L403.528 286.04C403.368 286.84 403.288 287.533 403.288 288.12C403.288 289.72 403.741 290.947 404.648 291.8C405.555 292.6 406.861 293 408.568 293ZM381.368 292.76C384.515 292.76 387.341 292.013 389.848 290.52C392.408 288.973 394.381 286.84 395.768 284.12C397.208 281.4 397.928 278.307 397.928 274.84C397.928 271.053 396.835 268.12 394.648 266.04C392.461 263.96 389.341 262.92 385.288 262.92C382.141 262.92 379.315 263.693 376.808 265.24C374.301 266.733 372.328 268.84 370.888 271.56C369.448 274.28 368.728 277.373 368.728 280.84C368.728 284.573 369.821 287.507 372.008 289.64C374.248 291.72 377.368 292.76 381.368 292.76Z" fill="#7A7A7A"/>
<path d="M491.415 256.2C496.215 256.2 499.948 257.427 502.615 259.88C505.335 262.28 506.695 265.72 506.695 270.2C506.695 271.427 506.508 273.107 506.135 275.24L501.415 299H493.735L498.455 275.24C498.721 273.747 498.855 272.52 498.855 271.56C498.855 268.787 498.081 266.68 496.535 265.24C494.988 263.8 492.641 263.08 489.495 263.08C485.548 263.08 482.295 264.2 479.735 266.44C477.228 268.627 475.521 271.933 474.615 276.36L470.055 299H462.375L467.175 275.24C467.441 273.8 467.575 272.6 467.575 271.64C467.575 268.867 466.775 266.76 465.175 265.32C463.628 263.827 461.281 263.08 458.135 263.08C454.188 263.08 450.935 264.2 448.375 266.44C445.868 268.68 444.161 272.067 443.255 276.6L438.775 299H431.095L439.495 256.6H446.855L445.815 261.88C449.548 258.093 454.455 256.2 460.535 256.2C463.841 256.2 466.668 256.84 469.015 258.12C471.361 259.4 473.068 261.267 474.135 263.72C478.455 258.707 484.215 256.2 491.415 256.2Z" fill="#7A7A7A"/>
<path d="M540.986 299.48C537.466 299.48 534.106 299.027 530.906 298.12C527.759 297.213 525.306 296.04 523.546 294.6L526.986 288.52C528.639 289.853 530.773 290.92 533.386 291.72C536.053 292.467 538.826 292.84 541.706 292.84C545.333 292.84 548.079 292.307 549.946 291.24C551.866 290.12 552.826 288.573 552.826 286.6C552.826 285 552.053 283.853 550.506 283.16C549.013 282.467 546.666 281.773 543.466 281.08C540.479 280.44 538.026 279.8 536.106 279.16C534.239 278.467 532.639 277.4 531.306 275.96C529.973 274.467 529.306 272.467 529.306 269.96C529.306 267.187 530.079 264.76 531.626 262.68C533.226 260.6 535.466 259 538.346 257.88C541.279 256.76 544.666 256.2 548.506 256.2C551.333 256.2 554.079 256.547 556.746 257.24C559.413 257.933 561.599 258.867 563.306 260.04L560.266 266.12C558.613 265 556.693 264.173 554.506 263.64C552.319 263.053 550.079 262.76 547.786 262.76C544.319 262.76 541.653 263.347 539.786 264.52C537.919 265.64 536.986 267.16 536.986 269.08C536.986 270.787 537.759 272.013 539.306 272.76C540.853 273.453 543.253 274.147 546.506 274.84C549.439 275.48 551.839 276.12 553.706 276.76C555.573 277.4 557.146 278.44 558.426 279.88C559.759 281.32 560.426 283.267 560.426 285.72C560.426 290.04 558.639 293.427 555.066 295.88C551.546 298.28 546.853 299.48 540.986 299.48Z" fill="#7A7A7A"/>
<path d="M195.337 328.72H198.817V336.8H195.337V328.72ZM175.977 324H210.537V330.16H206.977V327.12H179.377V330.16H175.977V324ZM176.097 331.04H193.537V333.68H176.097V331.04ZM196.377 331.12H210.137V333.6H196.377V331.12ZM197.457 343.84H208.817V345.92H197.457V343.84ZM197.457 347.52H208.617V349.56H197.457V347.52ZM197.457 351.16H209.737V353.24H197.457V351.16ZM175.257 337.04H194.097V339.8H175.257V337.04ZM178.537 333.96L181.537 333.44C182.097 334.64 182.657 336.28 182.817 337.32L179.657 337.96C179.537 336.92 179.057 335.24 178.537 333.96ZM187.817 333.32L191.057 334.08C190.377 335.72 189.697 337.24 189.177 338.36L186.297 337.68C186.817 336.44 187.497 334.6 187.817 333.32ZM188.697 341.52H192.137V355.24C192.137 356.8 191.817 357.56 190.737 358C189.697 358.44 188.057 358.44 185.857 358.44C185.697 357.6 185.257 356.52 184.857 355.76C186.297 355.8 187.697 355.8 188.097 355.8C188.577 355.76 188.697 355.64 188.697 355.24V341.52ZM195.337 339.88H206.217V337.76H195.337V335.4H209.737V342.24H195.337V339.88ZM195.337 340.68H198.817V353.92C198.817 355.16 199.097 355.4 200.937 355.4C201.777 355.4 205.977 355.4 207.057 355.4C208.417 355.4 208.697 354.96 208.857 352.6C209.577 353.08 210.897 353.56 211.857 353.76C211.497 357.28 210.497 358.28 207.377 358.28C206.497 358.28 201.417 358.28 200.537 358.28C196.537 358.28 195.337 357.4 195.337 353.96V340.68ZM182.617 328.84L185.737 328.36C186.417 329.36 187.097 330.8 187.377 331.76L184.177 332.4C183.897 331.44 183.257 329.92 182.617 328.84ZM190.417 321.68L194.377 321C195.137 322.08 195.857 323.56 196.177 324.56L192.057 325.32C191.817 324.32 191.097 322.76 190.417 321.68ZM179.337 341.52H190.257V343.88H179.337V341.52ZM177.617 341.52H180.617V348.04C180.617 351.36 180.217 355.84 178.137 358.84C177.577 358.28 176.337 357.36 175.617 357C177.417 354.32 177.617 350.76 177.617 348V341.52ZM180.217 352.08C182.577 351.52 185.857 350.52 189.257 349.56L189.577 351.48C186.657 352.68 183.777 353.76 181.297 354.72L180.217 352.08ZM181.057 346.92L182.217 345.08C184.097 345.6 186.657 346.44 188.017 347.08L186.897 349.16C185.537 348.52 183.017 347.56 181.057 346.92Z" fill="#7A7A7A"/>
<path d="M240.257 321.32L243.697 322C242.217 328.6 239.577 334.8 236.257 338.8C235.657 338.2 234.177 337.12 233.377 336.64C236.657 333.08 238.977 327.32 240.257 321.32ZM253.897 327.84H257.497C257.497 327.84 257.457 329.16 257.417 329.64C256.577 347.76 255.777 354.16 254.217 356.16C253.337 357.36 252.537 357.76 251.257 357.96C250.177 358.12 248.457 358.12 246.697 358C246.617 356.92 246.257 355.32 245.657 354.28C247.297 354.44 248.817 354.48 249.577 354.48C250.217 354.48 250.577 354.32 251.057 353.76C252.297 352.32 253.137 346 253.897 328.68V327.84ZM240.617 327.84H255.457V331.36H238.937L240.617 327.84ZM244.137 328.96L246.937 330.36C245.257 337.36 241.577 345.32 237.137 349.32C236.377 348.6 235.177 347.72 234.177 347.16C238.857 343.48 242.537 335.84 244.137 328.96ZM249.777 329.28L252.777 330.68C250.777 341.28 246.417 352.24 239.737 357.68C239.017 356.92 237.657 355.96 236.617 355.44C243.577 350.44 247.897 339.76 249.777 329.28ZM220.457 343.36C224.297 342.44 230.057 340.76 235.537 339.16L236.017 342.48C230.977 344.08 225.537 345.76 221.417 347L220.457 343.36ZM227.817 321.36H231.297V358.44H227.817V321.36ZM222.697 323.64L225.937 324.16C225.377 329.48 224.377 334.96 222.897 338.52C222.337 338.08 220.897 337.2 220.137 336.84C221.537 333.52 222.297 328.48 222.697 323.64ZM223.337 329.32H235.097V332.96H222.657L223.337 329.32Z" fill="#7A7A7A"/>
<path d="M282.817 323.68H302.417V327.28H282.817V323.68ZM293.817 335.84H297.697V353.88C297.697 356.04 297.217 357.16 295.697 357.76C294.177 358.32 291.777 358.36 288.017 358.36C287.857 357.28 287.337 355.68 286.817 354.56C289.417 354.68 292.097 354.68 292.817 354.64C293.577 354.6 293.817 354.44 293.817 353.8V335.84ZM281.057 334.76H303.497V338.36H281.057V334.76ZM272.657 338.56L275.977 335.24L276.417 335.44V358.56H272.657V338.56ZM277.217 329.96L280.817 331.32C277.697 336.48 272.897 341.84 268.657 345.28C268.097 344.52 266.777 342.84 266.017 342.08C270.137 339.16 274.537 334.52 277.217 329.96ZM275.657 321.32L279.297 322.8C276.497 326.44 272.297 330.44 268.617 333.04C268.097 332.2 267.097 330.72 266.457 329.96C269.777 327.76 273.657 324.16 275.657 321.32Z" fill="#7A7A7A"/>
<path d="M319.377 342.56H346.577V345.84H319.377V342.56ZM314.097 328.04H340.417V331.48H314.097V328.04ZM325.617 335.32H343.857V338.6H325.617V335.32ZM345.057 342.56H348.817C348.817 342.56 348.777 343.6 348.697 344.08C347.977 352.4 347.257 355.8 345.977 357.12C345.137 358 344.297 358.32 343.017 358.44C341.977 358.52 340.017 358.52 337.937 358.44C337.897 357.4 337.457 355.92 336.857 354.96C338.777 355.16 340.577 355.2 341.377 355.16C342.057 355.16 342.457 355.12 342.857 354.76C343.737 353.88 344.457 350.8 345.057 343.12V342.56ZM336.337 347.68L338.937 346.72C340.137 348.36 341.337 350.6 341.777 352.04L339.017 353.12C338.577 351.68 337.417 349.36 336.337 347.68ZM318.857 322.72L322.217 321.4C323.697 322.96 325.417 325.2 326.217 326.72L322.657 328.24C321.977 326.72 320.337 324.4 318.857 322.72ZM324.377 348.68L327.457 348.32C328.217 350.88 328.617 354.2 328.617 356.4L325.337 356.84C325.457 354.68 325.057 351.32 324.377 348.68ZM330.337 348.36L333.257 347.68C334.257 349.88 335.217 352.76 335.537 354.68L332.417 355.48C332.177 353.56 331.257 350.6 330.337 348.36ZM319.137 347.6L322.337 348.64C321.457 352.04 320.137 355.8 317.737 358.28L314.817 356.2C316.937 354.12 318.417 350.72 319.137 347.6ZM331.057 321.28L334.937 322.24C331.337 333.56 325.097 344.2 314.177 350.4C313.737 349.48 312.777 348 312.137 347.16C322.177 341.76 328.177 331.56 331.057 321.28ZM339.617 328.04H343.137C342.577 330.92 341.857 334.32 341.217 336.56L337.897 336.04C338.497 333.92 339.177 330.64 339.617 328.04ZM342.457 335.32H345.977C345.417 338.16 344.737 341.56 344.097 343.76L340.737 343.36C341.377 341.16 342.057 337.92 342.457 335.32Z" fill="#7A7A7A"/>
<path d="M373.537 327.44H395.337V330.2H373.537V327.44ZM391.057 321.44L393.537 323.76C388.697 324.96 381.217 325.48 375.097 325.56C374.977 324.84 374.577 323.76 374.257 323.08C380.137 322.88 387.257 322.4 391.057 321.44ZM388.297 328.32C389.817 330.84 392.977 333.48 396.097 334.64C395.377 335.28 394.337 336.4 393.857 337.24C390.617 335.68 387.497 332.4 385.817 329.2L388.297 328.32ZM373.537 341.8H392.377V344.64H376.857V358.4H373.537V341.8ZM379.217 346.44H381.977V355.6H379.217V346.44ZM391.497 341.8H394.937V354.84C394.937 356.4 394.657 357.32 393.537 357.84C392.457 358.32 390.897 358.36 388.657 358.36C388.497 357.48 387.977 356.16 387.497 355.32C388.977 355.36 390.497 355.36 390.897 355.36C391.377 355.32 391.497 355.2 391.497 354.8V341.8ZM380.697 346.44H389.217V353.88H380.697V351.64H386.537V348.68H380.697V346.44ZM380.617 334.84V337.64H387.977V334.84H380.617ZM377.537 332.36H391.217V340.08H377.537V332.36ZM381.337 323.88L384.657 324.44C383.177 329.76 379.817 334.8 374.577 337.36C374.137 336.68 373.257 335.52 372.657 334.96C377.377 332.72 380.337 328.36 381.337 323.88ZM365.057 328.16H368.497V335.76C368.497 342.32 367.377 351.84 360.937 357.92C360.417 357.24 359.057 355.92 358.337 355.44C364.377 349.76 365.057 341.68 365.057 335.72V328.16ZM362.337 326.24H372.817V329.68H362.337V326.24ZM358.977 336.6H373.497V340.12H358.977V336.6ZM367.617 342.2C368.777 343.48 372.857 349.08 373.737 350.36L371.257 353.44C369.977 351 366.777 346.16 365.377 344.16L367.617 342.2ZM361.697 321.32L365.057 321.92C364.337 327.12 363.017 332.32 361.177 335.68C360.537 335.2 359.097 334.2 358.337 333.8C360.097 330.72 361.137 326 361.697 321.32Z" fill="#7A7A7A"/>
<path d="M406.577 324.12H440.097V327.8H406.577V324.12ZM424.137 337.68H438.337V341.4H424.137V337.68ZM405.137 353.12H441.337V356.8H405.137V353.12ZM422.337 325.56H426.297V354.92H422.337V325.56ZM410.377 334.68H414.297V355.08H410.377V334.68Z" fill="#7A7A7A"/>
</g>
<path d="M583.501 212H459.087C459.087 212 455.88 209.376 455.559 208.063C419.325 198.676 433.113 152.346 464.858 157.191C464.858 132.36 490.19 129.635 501.734 134.48C514.56 129.15 524.607 133.874 528.028 136.902C544.529 122.225 560.413 126.001 573.56 134.48C581.536 140.968 587.67 151.468 587.67 159.008C607.061 167.988 605.697 184.747 601.137 193.831C597.442 201.193 590.876 205.035 590.876 205.035C590.876 205.035 590.876 210.183 583.501 212Z" fill="#184C18"/>
<path d="M343.046 233H501.125C501.125 233 505.199 229.727 505.607 228.091C551.646 216.384 534.127 158.608 493.792 164.65C493.792 133.684 461.606 130.286 446.938 136.328C430.641 129.681 417.875 135.572 413.53 139.349C392.563 121.045 372.381 125.754 355.676 136.328C345.543 144.419 337.749 157.513 337.749 166.915C313.11 178.114 314.844 199.014 320.638 210.342C325.333 219.523 333.675 224.315 333.675 224.315C333.675 224.315 333.675 230.734 343.046 233Z" fill="#2F772F"/>
<path d="M565.831 183.841C564.537 190.78 562.921 190.78 562.921 190.78C562.921 190.78 561.088 190.78 560.011 183.841C559.414 180 561.313 180 562.921 180C564.528 180 566.547 180 565.831 183.841Z" fill="#FFE3E3"/>
<path d="M570.032 190.305C564.158 192.487 563.35 190.877 563.35 190.877C563.35 190.877 562.433 189.053 567.122 184.51C569.717 181.996 570.667 183.887 571.471 185.487C572.274 187.087 573.284 189.097 570.032 190.305Z" fill="#FFE3E3"/>
<path d="M555.968 190.553C561.842 192.734 562.65 191.125 562.65 191.125C562.65 191.125 563.567 189.301 558.878 184.758C556.283 182.244 555.333 184.135 554.529 185.735C553.726 187.335 552.716 189.345 555.968 190.553Z" fill="#FFE3E3"/>
<path d="M557.192 192.462C562.375 188.606 563.518 189.921 563.518 189.921C563.518 189.921 564.814 191.41 561.308 197.193C559.367 200.394 558.024 198.85 556.887 197.543C555.751 196.237 554.323 194.596 557.192 192.462Z" fill="#FFE3E3"/>
<path d="M568.577 192.462C563.394 188.606 562.251 189.921 562.251 189.921C562.251 189.921 560.955 191.41 564.461 197.193C566.402 200.394 567.745 198.85 568.882 197.543C570.018 196.237 571.446 194.596 568.577 192.462Z" fill="#FFE3E3"/>
<path d="M564.572 189.912C564.572 191.073 563.768 191.891 562.916 191.891C562.065 191.891 561.261 191.073 561.261 189.912C561.261 188.752 562.065 187.934 562.916 187.934C563.768 187.934 564.572 188.752 564.572 189.912Z" fill="#FFEA9F" stroke="white"/>
<path d="M378.246 190.762C376.306 201.17 373.881 201.17 373.881 201.17C373.881 201.17 371.133 201.17 369.516 190.762C368.621 185 371.47 185 373.881 185C376.292 185 379.32 185 378.246 190.762Z" fill="#FFE3E3"/>
<path d="M384.548 200.457C375.737 203.73 374.524 201.315 374.524 201.315C374.524 201.315 373.15 198.579 380.183 191.765C384.076 187.994 385.5 190.83 386.706 193.231C387.911 195.631 389.426 198.646 384.548 200.457Z" fill="#FFE3E3"/>
<path d="M363.452 200.829C372.263 204.101 373.476 201.687 373.476 201.687C373.476 201.687 374.85 198.951 367.817 192.137C363.924 188.365 362.5 191.202 361.294 193.602C360.089 196.002 358.574 199.017 363.452 200.829Z" fill="#FFE3E3"/>
<path d="M365.288 203.692C373.062 197.91 374.777 199.881 374.777 199.881C374.777 199.881 376.721 202.115 371.462 210.789C368.551 215.591 366.536 213.274 364.831 211.315C363.126 209.355 360.985 206.893 365.288 203.692Z" fill="#FFE3E3"/>
<path d="M382.365 203.692C374.591 197.91 372.877 199.881 372.877 199.881C372.877 199.881 370.933 202.115 376.192 210.789C379.103 215.591 381.118 213.274 382.823 211.315C384.527 209.355 386.669 206.893 382.365 203.692Z" fill="#FFE3E3"/>
<path d="M376.608 199.869C376.608 201.713 375.321 203.086 373.874 203.086C372.428 203.086 371.141 201.713 371.141 199.869C371.141 198.024 372.428 196.652 373.874 196.652C375.321 196.652 376.608 198.024 376.608 199.869Z" fill="#FFEA9F" stroke="white"/>
<path d="M459.831 166.841C458.537 173.78 456.921 173.78 456.921 173.78C456.921 173.78 455.088 173.78 454.011 166.841C453.414 163 455.313 163 456.921 163C458.528 163 460.547 163 459.831 166.841Z" fill="#FFE3E3"/>
<path d="M464.032 173.305C458.158 175.487 457.35 173.877 457.35 173.877C457.35 173.877 456.433 172.053 461.122 167.51C463.717 164.996 464.667 166.887 465.471 168.487C466.274 170.087 467.284 172.097 464.032 173.305Z" fill="#FFE3E3"/>
<path d="M449.968 173.553C455.842 175.734 456.65 174.125 456.65 174.125C456.65 174.125 457.567 172.301 452.878 167.758C450.283 165.244 449.333 167.135 448.529 168.735C447.726 170.335 446.716 172.345 449.968 173.553Z" fill="#FFE3E3"/>
<path d="M451.192 175.462C456.375 171.606 457.518 172.921 457.518 172.921C457.518 172.921 458.814 174.41 455.308 180.193C453.367 183.394 452.024 181.85 450.887 180.543C449.751 179.237 448.323 177.596 451.192 175.462Z" fill="#FFE3E3"/>
<path d="M462.577 175.462C457.394 171.606 456.251 172.921 456.251 172.921C456.251 172.921 454.955 174.41 458.461 180.193C460.402 183.394 461.745 181.85 462.882 180.543C464.018 179.237 465.446 177.596 462.577 175.462Z" fill="#FFE3E3"/>
<path d="M458.572 172.912C458.572 174.073 457.768 174.891 456.916 174.891C456.065 174.891 455.261 174.073 455.261 172.912C455.261 171.752 456.065 170.934 456.916 170.934C457.768 170.934 458.572 171.752 458.572 172.912Z" fill="#FFEA9F" stroke="white"/>
<path d="M443.504 363.56L455.18 322.442H458.498L446.864 363.56H443.504ZM463.019 326.138H497.627V329.666H463.019V326.138ZM465.371 332.522H495.569V335.924H465.371V332.522ZM462.515 345.164H498.509V348.566H462.515V345.164ZM461.591 338.906H499.433V342.392H461.591V338.906ZM478.223 328.238H482.297V341.594H478.223V328.238ZM468.647 321.77L472.175 320.342C473.603 321.896 475.031 324.038 475.619 325.508L471.923 327.146C471.419 325.634 470.033 323.366 468.647 321.77ZM487.925 320.342L492.125 321.518C490.697 323.786 489.059 326.138 487.757 327.692L484.229 326.558C485.489 324.878 487.043 322.232 487.925 320.342ZM477.845 341.51H482.003C480.995 351.212 478.265 356.924 462.851 359.444C462.557 358.436 461.591 356.756 460.835 355.874C475.073 353.9 477.005 349.448 477.845 341.51ZM480.533 351.548L482.297 348.566C487.841 350.54 495.569 353.9 499.433 356.252L497.543 359.696C493.847 357.26 486.203 353.732 480.533 351.548ZM515.015 329.33L518.753 330.548C516.023 334.286 511.739 337.814 507.875 339.998C507.287 339.242 505.943 337.646 505.103 336.932C508.883 335.126 512.747 332.312 515.015 329.33ZM525.515 331.64L528.203 329.372C531.899 331.556 536.687 334.916 539.039 337.268L536.183 339.872C533.957 337.52 529.295 333.992 525.515 331.64ZM510.437 345.29H534.377V359.444H530.345V348.818H514.259V359.57H510.437V345.29ZM512.495 354.74H532.235V358.268H512.495V354.74ZM504.599 324.206H540.089V332.48H536.057V327.818H508.505V332.48H504.599V324.206ZM519.173 321.098L523.289 320.174C524.255 321.77 525.263 323.912 525.683 325.34L521.357 326.348C521.021 324.962 520.055 322.778 519.173 321.098ZM521.861 333.068L525.305 334.58C520.853 341.636 513.419 347.096 505.271 350.414C504.683 349.448 503.675 348.062 502.751 347.222C510.521 344.45 517.913 339.41 521.861 333.068ZM523.625 334.58C528.539 340.418 534.671 343.862 541.853 346.592C540.929 347.432 539.837 348.734 539.333 349.91C531.941 346.592 525.893 342.77 520.433 336.092L523.625 334.58Z" fill="#7A7A7A"/>
<defs>
<filter id="filter0_d_335_2030" x="0.720337" y="144.36" width="564.586" height="216.48" filterUnits="userSpaceOnUse" color-interpolation-filters="sRGB">
<feFlood flood-opacity="0" result="BackgroundImageFix"/>
<feColorMatrix in="SourceAlpha" type="matrix" values="0 0 0 0 0 0 0 0 0 0 0 0 0 0 0 0 0 0 127 0" result="hardAlpha"/>
<feOffset dx="2" dy="2"/>
<feComposite in2="hardAlpha" operator="out"/>
<feColorMatrix type="matrix" values="0 0 0 0 1 0 0 0 0 1 0 0 0 0 1 0 0 0 1 0"/>
<feBlend mode="normal" in2="BackgroundImageFix" result="effect1_dropShadow_335_2030"/>
<feBlend mode="normal" in="SourceGraphic" in2="effect1_dropShadow_335_2030" result="shape"/>
</filter>
</defs>
</svg>
