<svg width="500" height="313" viewBox="0 0 500 313" fill="none" xmlns="http://www.w3.org/2000/svg">
<path fill-rule="evenodd" clip-rule="evenodd" d="M253.576 24.2166C239.475 9.381 218.678 0 195.483 0C162.734 0 134.766 18.7005 123.674 45.0506C113.93 42.9973 103.603 42.127 92.9642 42.6324C38.9933 45.1962 -2.57256 82.1942 0.124138 125.27C1.90915 153.783 22.6402 177.811 52.106 190.056C47.1678 198.12 44.6481 206.781 45.0406 215.733C46.7605 254.96 103.753 284.91 172.336 282.628C177.585 282.453 182.749 282.095 187.811 281.565C206.324 300.635 232.332 312.5 261.136 312.5C293.649 312.5 322.601 297.382 341.23 273.849C345.913 275.66 350.819 277.216 355.923 278.486C406.977 291.18 458.567 270.337 471.152 231.931C475.484 218.711 474.63 205.133 469.563 192.492C472.249 191.494 474.843 190.273 477.322 188.824C504.775 172.769 507.715 134.691 483.888 103.774C460.222 73.0665 419.051 60.973 391.595 76.5415C387.521 37.9557 351.033 7.76144 306.624 7.76144C286.576 7.76144 268.142 13.9152 253.576 24.2166ZM370.924 135.687C370.774 135.171 370.632 134.656 370.496 134.14C369.968 134.671 369.431 135.194 368.887 135.711C369.564 135.697 370.243 135.689 370.924 135.687Z" fill="#D9D9D9"/>
</svg>
