<svg width="681" height="491" viewBox="0 0 681 491" fill="none" xmlns="http://www.w3.org/2000/svg">
<path fill-rule="evenodd" clip-rule="evenodd" d="M346.831 38.0492C327.544 14.7395 299.099 0 267.374 0C222.581 0 184.327 29.3822 169.157 70.7834C155.828 67.5574 141.704 66.1899 127.153 66.9839C53.3336 71.0122 -3.51857 129.144 0.169869 196.824C2.61134 241.623 30.9664 279.377 71.2685 298.616C64.5142 311.286 61.0678 324.895 61.6046 338.959C63.957 400.593 141.908 447.65 235.714 444.065C242.893 443.791 249.957 443.228 256.88 442.394C282.201 472.357 317.775 491 357.171 491C401.641 491 441.24 467.246 466.721 430.271C473.126 433.117 479.836 435.563 486.817 437.557C556.647 457.502 627.209 424.753 644.422 364.41C650.245 343.998 649.217 323.044 642.604 303.477C684.88 272.496 693.671 210.493 661.841 163.05C632.575 119.427 578.917 102.949 535.747 121.896C530.929 60.4908 480.674 12.1948 419.388 12.1948C391.967 12.1948 366.754 21.8636 346.831 38.0492Z" fill="#D9D9D9"/>
</svg>
