<svg width="861" height="360" viewBox="0 0 861 360" fill="none" xmlns="http://www.w3.org/2000/svg">
<g filter="url(#filter0_d_204_829)">
<mask id="path-1-inside-1_204_829" fill="white">
<path fill-rule="evenodd" clip-rule="evenodd" d="M775.818 2C761.76 2 748.58 5.38931 737.227 11.3112C725.875 5.38931 712.695 2 698.636 2C684.578 2 671.398 5.38933 660.046 11.3113C648.693 5.38933 635.513 2 621.455 2C607.396 2 594.216 5.38931 582.864 11.3112C571.511 5.38931 558.331 2 544.273 2C530.215 2 517.034 5.38933 505.682 11.3113C494.329 5.38933 481.149 2 467.091 2C453.033 2 439.852 5.38931 428.5 11.3112C417.148 5.38931 403.967 2 389.909 2C375.851 2 362.671 5.38934 351.318 11.3113C339.966 5.38934 326.785 2 312.727 2C298.669 2 285.489 5.38931 274.136 11.3112C262.784 5.38931 249.604 2 235.545 2C221.487 2 208.307 5.38933 196.955 11.3113C185.602 5.38933 172.422 2 158.364 2C144.305 2 131.125 5.38931 119.773 11.3112C108.42 5.38931 95.24 2 81.1818 2C38.5555 2 4 33.161 4 71.6C4 84.2772 7.75854 96.1628 14.3256 106.4C7.75854 116.637 4 128.523 4 141.2C4 153.877 7.75854 165.763 14.3256 176C7.75854 186.237 4 198.123 4 210.8C4 223.477 7.75853 235.363 14.3255 245.6C7.75853 255.837 4 267.723 4 280.4C4 318.839 38.5555 350 81.1818 350C95.24 350 108.42 346.611 119.773 340.689C131.125 346.611 144.305 350 158.364 350C172.422 350 185.602 346.611 196.955 340.689C208.307 346.611 221.487 350 235.545 350C249.604 350 262.784 346.611 274.136 340.689C285.489 346.611 298.669 350 312.727 350C326.785 350 339.966 346.611 351.318 340.689C362.671 346.611 375.851 350 389.909 350C403.967 350 417.148 346.611 428.5 340.689C439.852 346.611 453.033 350 467.091 350C481.149 350 494.329 346.611 505.682 340.689C517.034 346.611 530.215 350 544.273 350C558.331 350 571.511 346.611 582.864 340.689C594.216 346.611 607.396 350 621.455 350C635.513 350 648.693 346.611 660.046 340.689C671.398 346.611 684.578 350 698.636 350C712.695 350 725.875 346.611 737.227 340.689C748.58 346.611 761.76 350 775.818 350C818.445 350 853 318.839 853 280.4C853 267.723 849.242 255.837 842.674 245.6C849.242 235.363 853 223.477 853 210.8C853 198.123 849.241 186.237 842.674 176C849.241 165.763 853 153.877 853 141.2C853 128.523 849.241 116.637 842.674 106.4C849.241 96.1628 853 84.2772 853 71.6C853 33.161 818.445 2 775.818 2Z"/>
</mask>
<path fill-rule="evenodd" clip-rule="evenodd" d="M775.818 2C761.76 2 748.58 5.38931 737.227 11.3112C725.875 5.38931 712.695 2 698.636 2C684.578 2 671.398 5.38933 660.046 11.3113C648.693 5.38933 635.513 2 621.455 2C607.396 2 594.216 5.38931 582.864 11.3112C571.511 5.38931 558.331 2 544.273 2C530.215 2 517.034 5.38933 505.682 11.3113C494.329 5.38933 481.149 2 467.091 2C453.033 2 439.852 5.38931 428.5 11.3112C417.148 5.38931 403.967 2 389.909 2C375.851 2 362.671 5.38934 351.318 11.3113C339.966 5.38934 326.785 2 312.727 2C298.669 2 285.489 5.38931 274.136 11.3112C262.784 5.38931 249.604 2 235.545 2C221.487 2 208.307 5.38933 196.955 11.3113C185.602 5.38933 172.422 2 158.364 2C144.305 2 131.125 5.38931 119.773 11.3112C108.42 5.38931 95.24 2 81.1818 2C38.5555 2 4 33.161 4 71.6C4 84.2772 7.75854 96.1628 14.3256 106.4C7.75854 116.637 4 128.523 4 141.2C4 153.877 7.75854 165.763 14.3256 176C7.75854 186.237 4 198.123 4 210.8C4 223.477 7.75853 235.363 14.3255 245.6C7.75853 255.837 4 267.723 4 280.4C4 318.839 38.5555 350 81.1818 350C95.24 350 108.42 346.611 119.773 340.689C131.125 346.611 144.305 350 158.364 350C172.422 350 185.602 346.611 196.955 340.689C208.307 346.611 221.487 350 235.545 350C249.604 350 262.784 346.611 274.136 340.689C285.489 346.611 298.669 350 312.727 350C326.785 350 339.966 346.611 351.318 340.689C362.671 346.611 375.851 350 389.909 350C403.967 350 417.148 346.611 428.5 340.689C439.852 346.611 453.033 350 467.091 350C481.149 350 494.329 346.611 505.682 340.689C517.034 346.611 530.215 350 544.273 350C558.331 350 571.511 346.611 582.864 340.689C594.216 346.611 607.396 350 621.455 350C635.513 350 648.693 346.611 660.046 340.689C671.398 346.611 684.578 350 698.636 350C712.695 350 725.875 346.611 737.227 340.689C748.58 346.611 761.76 350 775.818 350C818.445 350 853 318.839 853 280.4C853 267.723 849.242 255.837 842.674 245.6C849.242 235.363 853 223.477 853 210.8C853 198.123 849.241 186.237 842.674 176C849.241 165.763 853 153.877 853 141.2C853 128.523 849.241 116.637 842.674 106.4C849.241 96.1628 853 84.2772 853 71.6C853 33.161 818.445 2 775.818 2Z" fill="white"/>
<path d="M737.227 11.3112L736.765 12.1978L737.227 12.4391L737.69 12.1978L737.227 11.3112ZM660.046 11.3113L659.583 12.1979L660.046 12.4392L660.508 12.1979L660.046 11.3113ZM582.864 11.3112L582.401 12.1978L582.864 12.4391L583.326 12.1978L582.864 11.3112ZM505.682 11.3113L505.219 12.1979L505.682 12.4392L506.144 12.1979L505.682 11.3113ZM428.5 11.3112L428.038 12.1978L428.5 12.4391L428.962 12.1978L428.5 11.3112ZM351.318 11.3113L350.856 12.1979L351.318 12.4392L351.781 12.1979L351.318 11.3113ZM274.136 11.3112L273.674 12.1978L274.136 12.4391L274.599 12.1978L274.136 11.3112ZM196.955 11.3113L196.492 12.1979L196.955 12.4392L197.417 12.1979L196.955 11.3113ZM119.773 11.3112L119.31 12.1978L119.773 12.4391L120.235 12.1978L119.773 11.3112ZM14.3256 106.4L15.1673 106.94L15.5136 106.4L15.1673 105.86L14.3256 106.4ZM14.3256 176L15.1673 176.54L15.5136 176L15.1673 175.46L14.3256 176ZM14.3255 245.6L15.1672 246.14L15.5136 245.6L15.1672 245.06L14.3255 245.6ZM119.773 340.689L120.235 339.802L119.773 339.561L119.31 339.802L119.773 340.689ZM196.955 340.689L197.417 339.802L196.955 339.561L196.492 339.802L196.955 340.689ZM274.136 340.689L274.599 339.802L274.136 339.561L273.674 339.802L274.136 340.689ZM351.318 340.689L351.781 339.802L351.318 339.561L350.856 339.802L351.318 340.689ZM428.5 340.689L428.962 339.802L428.5 339.561L428.038 339.802L428.5 340.689ZM505.682 340.689L506.144 339.802L505.682 339.561L505.219 339.802L505.682 340.689ZM582.864 340.689L583.326 339.802L582.864 339.561L582.401 339.802L582.864 340.689ZM660.046 340.689L660.508 339.802L660.046 339.561L659.583 339.802L660.046 340.689ZM737.227 340.689L737.69 339.802L737.227 339.561L736.765 339.802L737.227 340.689ZM842.674 245.6L841.833 245.06L841.486 245.6L841.833 246.14L842.674 245.6ZM842.674 176L841.833 175.46L841.486 176L841.833 176.54L842.674 176ZM842.674 106.4L841.833 105.86L841.486 106.4L841.833 106.94L842.674 106.4ZM737.69 12.1978C748.9 6.35031 761.921 3 775.818 3V1C761.599 1 748.26 4.42831 736.765 10.4246L737.69 12.1978ZM698.636 3C712.533 3 725.555 6.35031 736.765 12.1978L737.69 10.4246C726.195 4.42831 712.856 1 698.636 1V3ZM660.508 12.1979C671.718 6.35033 684.74 3 698.636 3V1C684.417 1 671.078 4.42833 659.583 10.4247L660.508 12.1979ZM621.455 3C635.352 3 648.373 6.35033 659.583 12.1979L660.508 10.4247C649.013 4.42833 635.674 1 621.455 1V3ZM583.326 12.1978C594.536 6.35031 607.558 3 621.455 3V1C607.235 1 593.896 4.42831 582.401 10.4246L583.326 12.1978ZM544.273 3C558.17 3 571.191 6.35031 582.401 12.1978L583.326 10.4246C571.831 4.42831 558.492 1 544.273 1V3ZM506.144 12.1979C517.354 6.35033 530.376 3 544.273 3V1C530.053 1 516.714 4.42833 505.219 10.4247L506.144 12.1979ZM467.091 3C480.988 3 494.009 6.35033 505.219 12.1979L506.144 10.4247C494.649 4.42833 481.31 1 467.091 1V3ZM428.962 12.1978C440.172 6.35031 453.194 3 467.091 3V1C452.871 1 439.533 4.42831 428.038 10.4246L428.962 12.1978ZM389.909 3C403.806 3 416.828 6.35031 428.038 12.1978L428.962 10.4246C417.467 4.42831 404.129 1 389.909 1V3ZM351.781 12.1979C362.991 6.35033 376.012 3 389.909 3V1C375.69 1 362.351 4.42834 350.856 10.4247L351.781 12.1979ZM312.727 3C326.624 3 339.646 6.35033 350.856 12.1979L351.781 10.4247C340.286 4.42834 326.947 1 312.727 1V3ZM274.599 12.1978C285.809 6.35031 298.83 3 312.727 3V1C298.508 1 285.169 4.42831 273.674 10.4246L274.599 12.1978ZM235.545 3C249.442 3 262.464 6.35031 273.674 12.1978L274.599 10.4246C263.104 4.42831 249.765 1 235.545 1V3ZM197.417 12.1979C208.627 6.35033 221.649 3 235.545 3V1C221.326 1 207.987 4.42833 196.492 10.4247L197.417 12.1979ZM158.364 3C172.26 3 185.282 6.35033 196.492 12.1979L197.417 10.4247C185.922 4.42833 172.583 1 158.364 1V3ZM120.235 12.1978C131.445 6.35031 144.467 3 158.364 3V1C144.144 1 130.805 4.42831 119.31 10.4246L120.235 12.1978ZM81.1818 3C95.0787 3 108.1 6.35031 119.31 12.1978L120.235 10.4246C108.74 4.42831 95.4012 1 81.1818 1V3ZM5 71.6C5 33.808 39.008 3 81.1818 3V1C38.103 1 3 32.5139 3 71.6H5ZM15.1673 105.86C8.69766 95.7747 5 84.0751 5 71.6H3C3 84.4793 6.81942 96.5509 13.4839 106.94L15.1673 105.86ZM5 141.2C5 128.725 8.69766 117.025 15.1673 106.94L13.4839 105.86C6.81942 116.249 3 128.321 3 141.2H5ZM15.1673 175.46C8.69766 165.375 5 153.675 5 141.2H3C3 154.079 6.81942 166.151 13.4839 176.54L15.1673 175.46ZM5 210.8C5 198.325 8.69766 186.625 15.1673 176.54L13.4839 175.46C6.81942 185.849 3 197.921 3 210.8H5ZM15.1672 245.06C8.69764 234.975 5 223.275 5 210.8H3C3 223.679 6.81941 235.751 13.4838 246.14L15.1672 245.06ZM5 280.4C5 267.925 8.69764 256.225 15.1672 246.14L13.4838 245.06C6.81941 255.449 3 267.521 3 280.4H5ZM81.1818 349C39.008 349 5 318.192 5 280.4H3C3 319.486 38.103 351 81.1818 351V349ZM119.31 339.802C108.1 345.65 95.0787 349 81.1818 349V351C95.4012 351 108.74 347.572 120.235 341.575L119.31 339.802ZM158.364 349C144.467 349 131.445 345.65 120.235 339.802L119.31 341.575C130.805 347.572 144.144 351 158.364 351V349ZM196.492 339.802C185.282 345.65 172.26 349 158.364 349V351C172.583 351 185.922 347.572 197.417 341.575L196.492 339.802ZM235.545 349C221.649 349 208.627 345.65 197.417 339.802L196.492 341.575C207.987 347.572 221.326 351 235.545 351V349ZM273.674 339.802C262.464 345.65 249.442 349 235.545 349V351C249.765 351 263.104 347.572 274.599 341.575L273.674 339.802ZM312.727 349C298.83 349 285.809 345.65 274.599 339.802L273.674 341.575C285.169 347.572 298.508 351 312.727 351V349ZM350.856 339.802C339.646 345.65 326.624 349 312.727 349V351C326.947 351 340.286 347.572 351.781 341.575L350.856 339.802ZM389.909 349C376.012 349 362.991 345.65 351.781 339.802L350.856 341.575C362.351 347.572 375.69 351 389.909 351V349ZM428.038 339.802C416.828 345.65 403.806 349 389.909 349V351C404.129 351 417.467 347.572 428.962 341.575L428.038 339.802ZM467.091 349C453.194 349 440.172 345.65 428.962 339.802L428.038 341.575C439.533 347.572 452.871 351 467.091 351V349ZM505.219 339.802C494.009 345.65 480.988 349 467.091 349V351C481.31 351 494.649 347.572 506.144 341.575L505.219 339.802ZM544.273 349C530.376 349 517.354 345.65 506.144 339.802L505.219 341.575C516.714 347.572 530.053 351 544.273 351V349ZM582.401 339.802C571.191 345.65 558.17 349 544.273 349V351C558.492 351 571.831 347.572 583.326 341.575L582.401 339.802ZM621.455 349C607.558 349 594.536 345.65 583.326 339.802L582.401 341.575C593.896 347.572 607.235 351 621.455 351V349ZM659.583 339.802C648.373 345.65 635.352 349 621.455 349V351C635.674 351 649.013 347.572 660.508 341.575L659.583 339.802ZM698.636 349C684.74 349 671.718 345.65 660.508 339.802L659.583 341.575C671.078 347.572 684.417 351 698.636 351V349ZM736.765 339.802C725.555 345.65 712.533 349 698.636 349V351C712.856 351 726.195 347.572 737.69 341.575L736.765 339.802ZM775.818 349C761.921 349 748.9 345.65 737.69 339.802L736.765 341.575C748.26 347.572 761.599 351 775.818 351V349ZM852 280.4C852 318.192 817.992 349 775.818 349V351C818.897 351 854 319.486 854 280.4H852ZM841.833 246.14C848.302 256.225 852 267.925 852 280.4H854C854 267.521 850.181 255.449 843.516 245.06L841.833 246.14ZM852 210.8C852 223.275 848.302 234.975 841.833 245.06L843.516 246.14C850.181 235.751 854 223.679 854 210.8H852ZM841.833 176.54C848.302 186.625 852 198.325 852 210.8H854C854 197.921 850.181 185.849 843.516 175.46L841.833 176.54ZM852 141.2C852 153.675 848.302 165.375 841.833 175.46L843.516 176.54C850.181 166.151 854 154.079 854 141.2H852ZM841.833 106.94C848.302 117.025 852 128.725 852 141.2H854C854 128.321 850.181 116.249 843.516 105.86L841.833 106.94ZM852 71.6C852 84.0751 848.302 95.7747 841.833 105.86L843.516 106.94C850.181 96.5509 854 84.4793 854 71.6H852ZM775.818 3C817.992 3 852 33.808 852 71.6H854C854 32.5139 818.897 1 775.818 1V3Z" fill="#D9D9D9" mask="url(#path-1-inside-1_204_829)"/>
</g>
<defs>
<filter id="filter0_d_204_829" x="0" y="0" width="861" height="360" filterUnits="userSpaceOnUse" color-interpolation-filters="sRGB">
<feFlood flood-opacity="0" result="BackgroundImageFix"/>
<feColorMatrix in="SourceAlpha" type="matrix" values="0 0 0 0 0 0 0 0 0 0 0 0 0 0 0 0 0 0 127 0" result="hardAlpha"/>
<feOffset dx="2" dy="4"/>
<feGaussianBlur stdDeviation="3"/>
<feComposite in2="hardAlpha" operator="out"/>
<feColorMatrix type="matrix" values="0 0 0 0 0 0 0 0 0 0 0 0 0 0 0 0 0 0 0.3 0"/>
<feBlend mode="normal" in2="BackgroundImageFix" result="effect1_dropShadow_204_829"/>
<feBlend mode="normal" in="SourceGraphic" in2="effect1_dropShadow_204_829" result="shape"/>
</filter>
</defs>
</svg>
