<svg width="612" height="712" viewBox="0 0 612 712" fill="none" xmlns="http://www.w3.org/2000/svg">
<g filter="url(#filter0_d_227_1609)">
<mask id="path-1-inside-1_227_1609" fill="white">
<path fill-rule="evenodd" clip-rule="evenodd" d="M244 468.334C244 468.445 244 468.556 244 468.667C244.099 468.667 244.198 468.667 244.297 468.667C244.198 468.556 244.099 468.445 244 468.334ZM4 352C4 330.75 9.84366 310.827 20.0539 293.667C9.84366 276.507 4 256.583 4 235.333C4 214.083 9.84366 194.16 20.0539 177C9.84366 159.84 4 139.917 4 118.667C4 54.2334 57.7258 2 124 2C145.857 2 166.35 7.68133 184 17.6079C201.65 7.68133 222.143 2 244 2C265.857 2 286.35 7.68133 304 17.6079C321.65 7.68133 342.143 2 364 2C385.857 2 406.35 7.68133 424 17.6079C441.65 7.68133 462.143 2 484 2C550.274 2 604 54.2334 604 118.667C604 139.917 598.156 159.84 587.946 177C598.156 194.16 604 214.083 604 235.333C604 256.583 598.156 276.507 587.946 293.667C598.156 310.827 604 330.75 604 352C604 373.25 598.156 393.173 587.946 410.333C598.156 427.493 604 447.417 604 468.667C604 489.917 598.156 509.84 587.946 527C598.156 544.16 604 564.083 604 585.333C604 649.767 550.274 702 484 702C462.143 702 441.65 696.319 424 686.392C406.35 696.319 385.857 702 364 702C342.143 702 321.65 696.319 304 686.392C286.35 696.319 265.857 702 244 702C222.143 702 201.65 696.319 184 686.392C166.35 696.319 145.857 702 124 702C57.7258 702 4 649.767 4 585.333C4 564.083 9.84366 544.16 20.0539 527C9.84366 509.84 4 489.917 4 468.667C4 447.417 9.84366 427.493 20.0539 410.333C9.84366 393.173 4 373.25 4 352Z"/>
</mask>
<path fill-rule="evenodd" clip-rule="evenodd" d="M244 468.334C244 468.445 244 468.556 244 468.667C244.099 468.667 244.198 468.667 244.297 468.667C244.198 468.556 244.099 468.445 244 468.334ZM4 352C4 330.75 9.84366 310.827 20.0539 293.667C9.84366 276.507 4 256.583 4 235.333C4 214.083 9.84366 194.16 20.0539 177C9.84366 159.84 4 139.917 4 118.667C4 54.2334 57.7258 2 124 2C145.857 2 166.35 7.68133 184 17.6079C201.65 7.68133 222.143 2 244 2C265.857 2 286.35 7.68133 304 17.6079C321.65 7.68133 342.143 2 364 2C385.857 2 406.35 7.68133 424 17.6079C441.65 7.68133 462.143 2 484 2C550.274 2 604 54.2334 604 118.667C604 139.917 598.156 159.84 587.946 177C598.156 194.16 604 214.083 604 235.333C604 256.583 598.156 276.507 587.946 293.667C598.156 310.827 604 330.75 604 352C604 373.25 598.156 393.173 587.946 410.333C598.156 427.493 604 447.417 604 468.667C604 489.917 598.156 509.84 587.946 527C598.156 544.16 604 564.083 604 585.333C604 649.767 550.274 702 484 702C462.143 702 441.65 696.319 424 686.392C406.35 696.319 385.857 702 364 702C342.143 702 321.65 696.319 304 686.392C286.35 696.319 265.857 702 244 702C222.143 702 201.65 696.319 184 686.392C166.35 696.319 145.857 702 124 702C57.7258 702 4 649.767 4 585.333C4 564.083 9.84366 544.16 20.0539 527C9.84366 509.84 4 489.917 4 468.667C4 447.417 9.84366 427.493 20.0539 410.333C9.84366 393.173 4 373.25 4 352Z" fill="white" style="mix-blend-mode:lighten" shape-rendering="crispEdges"/>
<path d="M244 468.334L244.746 467.669L242.992 465.699L243 468.337L244 468.334ZM244 468.667H243V469.667H244V468.667ZM244.297 468.667L244.295 469.667L246.542 469.673L245.042 467.999L244.297 468.667ZM20.0539 293.667L20.9132 294.178L21.2175 293.667L20.9132 293.155L20.0539 293.667ZM20.0539 177L20.9132 177.511L21.2175 177L20.9132 176.489L20.0539 177ZM184 17.6079L183.51 18.4795L184 18.7552L184.49 18.4795L184 17.6079ZM304 17.6079L303.51 18.4795L304 18.7552L304.49 18.4795L304 17.6079ZM424 17.6079L423.51 18.4795L424 18.7552L424.49 18.4795L424 17.6079ZM587.946 177L587.087 176.489L586.782 177L587.087 177.511L587.946 177ZM587.946 293.667L587.087 293.155L586.783 293.667L587.087 294.178L587.946 293.667ZM587.946 410.333L587.087 409.822L586.782 410.333L587.087 410.845L587.946 410.333ZM587.946 527L587.087 526.489L586.782 527L587.087 527.511L587.946 527ZM424 686.392L424.49 685.52L424 685.245L423.51 685.52L424 686.392ZM304 686.392L304.49 685.52L304 685.245L303.51 685.52L304 686.392ZM184 686.392L184.49 685.52L184 685.245L183.51 685.52L184 686.392ZM20.0539 527L20.9132 527.511L21.2175 527L20.9132 526.489L20.0539 527ZM20.0539 410.333L20.9132 410.845L21.2175 410.333L20.9132 409.822L20.0539 410.333ZM243 468.337C243 468.447 243 468.557 243 468.667H245C245 468.555 245 468.443 245 468.331L243 468.337ZM244 469.667C244.098 469.667 244.197 469.667 244.295 469.667L244.3 467.667C244.2 467.667 244.1 467.667 244 467.667V469.667ZM245.042 467.999C244.943 467.889 244.845 467.779 244.746 467.669L243.253 468.999C243.353 469.111 243.453 469.223 243.553 469.335L245.042 467.999ZM19.1945 293.155C8.89543 310.465 3 330.564 3 352H5C5 330.936 10.7919 311.189 20.9132 294.178L19.1945 293.155ZM3 235.333C3 256.77 8.89542 276.869 19.1945 294.178L20.9132 293.155C10.7919 276.145 5 256.397 5 235.333H3ZM19.1945 176.489C8.89543 193.798 3 213.897 3 235.333H5C5 214.269 10.7919 194.522 20.9132 177.511L19.1945 176.489ZM3 118.667C3 140.103 8.89543 160.202 19.1945 177.511L20.9132 176.489C10.7919 159.478 5 139.731 5 118.667H3ZM124 1C57.2003 1 3 53.6548 3 118.667H5C5 54.8121 58.2514 3 124 3V1ZM184.49 16.7363C166.693 6.72718 146.032 1 124 1V3C145.682 3 166.006 8.63548 183.51 18.4795L184.49 16.7363ZM244 1C221.968 1 201.307 6.72718 183.51 16.7363L184.49 18.4795C201.994 8.63548 222.318 3 244 3V1ZM304.49 16.7363C286.693 6.72718 266.032 1 244 1V3C265.682 3 286.006 8.63548 303.51 18.4795L304.49 16.7363ZM364 1C341.968 1 321.307 6.72718 303.51 16.7363L304.49 18.4795C321.994 8.63548 342.318 3 364 3V1ZM424.49 16.7363C406.693 6.72718 386.032 1 364 1V3C385.682 3 406.006 8.63548 423.51 18.4795L424.49 16.7363ZM484 1C461.968 1 441.307 6.72718 423.51 16.7363L424.49 18.4795C441.994 8.63548 462.318 3 484 3V1ZM605 118.667C605 53.6548 550.8 1 484 1V3C549.749 3 603 54.8121 603 118.667H605ZM588.805 177.511C599.105 160.202 605 140.103 605 118.667H603C603 139.731 597.208 159.478 587.087 176.489L588.805 177.511ZM605 235.333C605 213.897 599.105 193.798 588.805 176.489L587.087 177.511C597.208 194.522 603 214.269 603 235.333H605ZM588.806 294.178C599.105 276.869 605 256.77 605 235.333H603C603 256.397 597.208 276.145 587.087 293.155L588.806 294.178ZM605 352C605 330.564 599.105 310.465 588.806 293.155L587.087 294.178C597.208 311.189 603 330.936 603 352H605ZM588.805 410.845C599.105 393.535 605 373.436 605 352H603C603 373.064 597.208 392.811 587.087 409.822L588.805 410.845ZM605 468.667C605 447.23 599.105 427.131 588.805 409.822L587.087 410.845C597.208 427.855 603 447.603 603 468.667H605ZM588.805 527.511C599.105 510.202 605 490.103 605 468.667H603C603 489.731 597.208 509.478 587.087 526.489L588.805 527.511ZM605 585.333C605 563.897 599.105 543.798 588.805 526.489L587.087 527.511C597.208 544.522 603 564.269 603 585.333H605ZM484 703C550.8 703 605 650.345 605 585.333H603C603 649.188 549.749 701 484 701V703ZM423.51 687.264C441.307 697.273 461.968 703 484 703V701C462.318 701 441.994 695.365 424.49 685.52L423.51 687.264ZM364 703C386.032 703 406.693 697.273 424.49 687.264L423.51 685.52C406.006 695.365 385.682 701 364 701V703ZM303.51 687.264C321.307 697.273 341.968 703 364 703V701C342.318 701 321.994 695.365 304.49 685.52L303.51 687.264ZM244 703C266.032 703 286.693 697.273 304.49 687.264L303.51 685.52C286.006 695.365 265.682 701 244 701V703ZM183.51 687.264C201.307 697.273 221.968 703 244 703V701C222.318 701 201.994 695.365 184.49 685.52L183.51 687.264ZM124 703C146.032 703 166.693 697.273 184.49 687.264L183.51 685.52C166.006 695.365 145.682 701 124 701V703ZM3 585.333C3 650.345 57.2003 703 124 703V701C58.2514 701 5 649.188 5 585.333H3ZM19.1945 526.489C8.89543 543.798 3 563.897 3 585.333H5C5 564.269 10.7919 544.522 20.9132 527.511L19.1945 526.489ZM3 468.667C3 490.103 8.89543 510.202 19.1945 527.511L20.9132 526.489C10.7919 509.478 5 489.731 5 468.667H3ZM19.1945 409.822C8.89543 427.131 3 447.23 3 468.667H5C5 447.603 10.7919 427.855 20.9132 410.845L19.1945 409.822ZM3 352C3 373.436 8.89543 393.535 19.1945 410.845L20.9132 409.822C10.7919 392.811 5 373.064 5 352H3Z" fill="#D9D9D9" mask="url(#path-1-inside-1_227_1609)"/>
</g>
<defs>
<filter id="filter0_d_227_1609" x="0" y="0" width="612" height="712" filterUnits="userSpaceOnUse" color-interpolation-filters="sRGB">
<feFlood flood-opacity="0" result="BackgroundImageFix"/>
<feColorMatrix in="SourceAlpha" type="matrix" values="0 0 0 0 0 0 0 0 0 0 0 0 0 0 0 0 0 0 127 0" result="hardAlpha"/>
<feOffset dx="2" dy="4"/>
<feGaussianBlur stdDeviation="3"/>
<feComposite in2="hardAlpha" operator="out"/>
<feColorMatrix type="matrix" values="0 0 0 0 0 0 0 0 0 0 0 0 0 0 0 0 0 0 0.3 0"/>
<feBlend mode="normal" in2="BackgroundImageFix" result="effect1_dropShadow_227_1609"/>
<feBlend mode="normal" in="SourceGraphic" in2="effect1_dropShadow_227_1609" result="shape"/>
</filter>
</defs>
</svg>
